<?xml version="1.0" encoding="UTF-8" standalone="no"?>
<svg
   xmlns:dc="http://purl.org/dc/elements/1.1/"
   xmlns:cc="http://creativecommons.org/ns#"
   xmlns:rdf="http://www.w3.org/1999/02/22-rdf-syntax-ns#"
   xmlns:svg="http://www.w3.org/2000/svg"
   xmlns="http://www.w3.org/2000/svg"
   xmlns:sodipodi="http://sodipodi.sourceforge.net/DTD/sodipodi-0.dtd"
   xmlns:inkscape="http://www.inkscape.org/namespaces/inkscape"
   version="1.1"
   viewBox="0 0 746.8877 326.20111"
   stroke-miterlimit="10"
   id="svg165"
   sodipodi:docname="a3c-dark.svg"
   width="746.8877"
   height="326.20111"
   style="fill:none;stroke:none;stroke-linecap:square;stroke-miterlimit:10"
   inkscape:version="0.92.5 (2060ec1f9f, 2020-04-08)">
  <metadata
     id="metadata171">
    <rdf:RDF>
      <cc:Work
         rdf:about="">
        <dc:format>image/svg+xml</dc:format>
        <dc:type
           rdf:resource="http://purl.org/dc/dcmitype/StillImage" />
        <dc:title></dc:title>
      </cc:Work>
    </rdf:RDF>
  </metadata>
  <defs
     id="defs169">
    <clipPath
       clipPathUnits="userSpaceOnUse"
       id="clipPath980">
      <rect
         style="fill:#000000;fill-opacity:0.495283;stroke:none;stroke-width:0.89819801;stroke-opacity:1"
         id="rect982"
         width="746.8877"
         height="326.20111"
         x="90.347488"
         y="15.022867" />
    </clipPath>
  </defs>
  <sodipodi:namedview
     pagecolor="#ffffff"
     bordercolor="#666666"
     borderopacity="1"
     objecttolerance="10"
     gridtolerance="10"
     guidetolerance="10"
     inkscape:pageopacity="0"
     inkscape:pageshadow="2"
     inkscape:window-width="2488"
     inkscape:window-height="1376"
     id="namedview167"
     showgrid="false"
     fit-margin-top="0"
     fit-margin-left="0"
     fit-margin-right="0"
     fit-margin-bottom="0"
     inkscape:zoom="1.4458333"
     inkscape:cx="134.21401"
     inkscape:cy="148.61584"
     inkscape:window-x="72"
     inkscape:window-y="27"
     inkscape:window-maximized="1"
     inkscape:current-layer="svg165" />
  <clipPath
     id="g2e91084fecb_0_5.0">
    <path
       d="M 0,0 H 960 V 540 H 0 Z"
       id="path2"
       inkscape:connector-curvature="0"
       style="clip-rule:nonzero" />
  </clipPath>
  <path
     style="fill:#bf9000;fill-rule:evenodd"
     d="M 81.794922 44.976562 L 81.794922 121.41797 L 466.80273 121.41797 L 466.80273 44.976562 L 81.794922 44.976562 z M 107.03125 59.263672 L 271.54492 59.263672 C 272.27898 59.263672 273.00167 59.372349 273.69141 59.582031 C 274.15123 59.721819 274.59554 59.906515 275.01953 60.132812 C 275.44352 60.35911 275.84741 60.628085 276.22266 60.935547 C 276.41027 61.089287 276.59065 61.252762 276.76367 61.425781 C 277.10971 61.77182 277.418 62.147597 277.68555 62.548828 L 277.68555 62.550781 C 277.81896 62.75096 277.94375 62.956467 278.05664 63.167969 L 278.05664 63.169922 C 278.39566 63.805461 278.64153 64.488498 278.7832 65.197266 C 278.87776 65.670144 278.92578 66.155159 278.92578 66.644531 L 278.92578 96.166016 C 278.92578 97.439846 278.60327 98.637794 278.03516 99.683594 C 277.8079 100.10192 277.54107 100.4968 277.24023 100.86133 C 275.8865 102.50167 273.83782 103.54685 271.54492 103.54688 L 107.03125 103.54688 C 106.77714 103.54688 106.52484 103.53288 106.27734 103.50781 L 106.27539 103.50781 C 105.28353 103.40708 104.34992 103.11027 103.51367 102.65625 L 103.51172 102.65625 C 101.62928 101.63365 100.24321 99.816399 99.800781 97.654297 C 99.702464 97.17383 99.650391 96.675548 99.650391 96.166016 L 99.650391 66.644531 C 99.650391 66.134998 99.702464 65.636718 99.800781 65.15625 C 99.948137 64.436138 100.20057 63.754009 100.54102 63.126953 L 100.54102 63.125 C 101.56362 61.24256 103.38087 59.856493 105.54297 59.414062 C 106.02344 59.315745 106.52172 59.263672 107.03125 59.263672 z M 334.31836 59.263672 L 442.67578 59.263672 C 442.92046 59.263672 443.16293 59.274853 443.4043 59.298828 C 443.88771 59.346698 444.36183 59.442057 444.82227 59.582031 C 445.28152 59.721648 445.72687 59.906894 446.15039 60.132812 C 446.15091 60.133089 446.15183 60.132536 446.15234 60.132812 C 446.36381 60.245767 446.56939 60.370427 446.76953 60.503906 C 446.97064 60.637943 447.16546 60.781459 447.35352 60.935547 C 447.54113 61.089287 447.72151 61.252762 447.89453 61.425781 C 448.24057 61.77182 448.54886 62.147597 448.81641 62.548828 C 448.8167 62.549262 448.81612 62.550347 448.81641 62.550781 C 448.94982 62.75096 449.07462 62.956467 449.1875 63.167969 C 449.18776 63.168461 449.18724 63.16943 449.1875 63.169922 C 449.63961 64.017481 449.92568 64.949158 450.02148 65.914062 C 450.04559 66.156061 450.05664 66.399195 450.05664 66.644531 L 450.05664 96.166016 C 450.05664 96.675548 450.00457 97.17383 449.90625 97.654297 C 449.21799 101.01759 446.24248 103.54687 442.67578 103.54688 L 334.31836 103.54688 C 334.06359 103.54688 333.81256 103.53301 333.56445 103.50781 C 333.31569 103.48255 333.07091 103.44583 332.83008 103.39648 C 332.59049 103.34745 332.3555 103.28649 332.125 103.21484 C 332.12441 103.21466 332.12363 103.21503 332.12305 103.21484 C 331.89256 103.14314 331.66744 103.05988 331.44727 102.9668 C 331.44672 102.96657 331.44585 102.96703 331.44531 102.9668 C 331.2246 102.87342 331.00989 102.76988 330.80078 102.65625 C 330.59116 102.54238 330.38814 102.42008 330.19141 102.28711 C 329.99513 102.15447 329.8072 102.01175 329.625 101.86133 C 329.44274 101.71091 329.26656 101.55172 329.09961 101.38477 C 328.7657 101.05085 328.46449 100.68563 328.19922 100.29297 C 327.93405 99.900303 327.70619 99.480578 327.51953 99.039062 C 327.23942 98.376799 327.05216 97.664276 326.97656 96.919922 C 326.95136 96.671804 326.93945 96.420782 326.93945 96.166016 L 326.93945 66.644531 C 326.93945 66.390422 326.95149 66.138123 326.97656 65.890625 C 326.97663 65.88998 326.9765 65.889316 326.97656 65.888672 C 327.05216 65.144317 327.23942 64.433748 327.51953 63.771484 C 327.61267 63.551272 327.71678 63.33563 327.83008 63.126953 C 327.83034 63.126463 327.82981 63.12549 327.83008 63.125 C 327.9437 62.91584 328.06658 62.713907 328.19922 62.517578 C 328.46449 62.124921 328.7657 61.759694 329.09961 61.425781 C 329.26651 61.258821 329.4428 61.099638 329.625 60.949219 C 329.80686 60.799135 329.99554 60.655823 330.19141 60.523438 C 330.38768 60.390797 330.59167 60.267923 330.80078 60.154297 C 331.00943 60.040953 331.22513 59.936943 331.44531 59.84375 C 331.91612 59.644569 332.41294 59.496651 332.92773 59.398438 C 333.37883 59.31228 333.84216 59.263672 334.31836 59.263672 z "
     id="path25" />
  <path
     style="fill-rule:evenodd;stroke:#000000;stroke-width:1;stroke-linecap:butt;stroke-linejoin:round"
     inkscape:connector-curvature="0"
     id="path27"
     d="M 81.794252,44.977133 H 466.80212 V 121.41808 H 81.794252 Z" />
  <path
     style="fill:#1155cc;fill-rule:evenodd"
     inkscape:connector-curvature="0"
     id="path29"
     d="m 606.35591,136.80652 h 123.1181 v 81.19685 h -123.1181 z" />
  <path
     style="fill-rule:evenodd;stroke:#000000;stroke-width:1;stroke-linecap:butt;stroke-linejoin:round"
     inkscape:connector-curvature="0"
     id="path31"
     d="m 606.35591,136.80652 h 123.1181 v 81.19685 h -123.1181 z" />
  <path
     style="fill:#ffffff;fill-rule:nonzero"
     inkscape:connector-curvature="0"
     id="path33"
     d="m 648.63835,168.09058 v -1.57813 h 5.65625 v 4.95313 q -1.29687,1.04687 -2.6875,1.57812 -1.375,0.51563 -2.84375,0.51563 -1.96875,0 -3.57812,-0.84375 -1.60938,-0.84375 -2.42188,-2.4375 -0.8125,-1.59375 -0.8125,-3.5625 0,-1.95313 0.8125,-3.64063 0.8125,-1.6875 2.34375,-2.5 1.53125,-0.82812 3.51563,-0.82812 1.45312,0 2.625,0.46875 1.17187,0.46875 1.82812,1.3125 0.67188,0.82812 1.01563,2.17187 l -1.59375,0.4375 q -0.29688,-1.01562 -0.75,-1.59375 -0.4375,-0.59375 -1.26563,-0.9375 -0.82812,-0.34375 -1.84375,-0.34375 -1.20312,0 -2.09375,0.375 -0.89062,0.35938 -1.4375,0.96875 -0.53125,0.59375 -0.82812,1.3125 -0.51563,1.23438 -0.51563,2.6875 0,1.78125 0.60938,2.98438 0.625,1.20312 1.79687,1.79687 1.17188,0.57813 2.5,0.57813 1.14063,0 2.23438,-0.4375 1.09375,-0.45313 1.65625,-0.95313 v -2.48437 z m 8.01148,5.23437 v -13.35937 h 1.64062 v 13.35937 z m 3.58227,-4.84375 q 0,-2.6875 1.48438,-3.96875 1.25,-1.07812 3.04687,-1.07812 2,0 3.26563,1.3125 1.26562,1.29687 1.26562,3.60937 0,1.85938 -0.5625,2.9375 -0.5625,1.0625 -1.64062,1.65625 -1.0625,0.59375 -2.32813,0.59375 -2.03125,0 -3.28125,-1.29687 -1.25,-1.3125 -1.25,-3.76563 z m 1.6875,0 q 0,1.85938 0.79688,2.79688 0.8125,0.92187 2.04687,0.92187 1.21875,0 2.03125,-0.92187 0.8125,-0.9375 0.8125,-2.84375 0,-1.79688 -0.8125,-2.71875 -0.8125,-0.92188 -2.03125,-0.92188 -1.23437,0 -2.04687,0.92188 -0.79688,0.90625 -0.79688,2.76562 z m 10.79761,4.84375 h -1.51563 v -13.35937 h 1.64063 v 4.76562 q 1.04687,-1.29687 2.65625,-1.29687 0.89062,0 1.6875,0.35937 0.79687,0.35938 1.3125,1.01563 0.51562,0.64062 0.79687,1.5625 0.29688,0.92187 0.29688,1.96875 0,2.48437 -1.23438,3.84375 -1.21875,1.35937 -2.95312,1.35937 -1.70313,0 -2.6875,-1.4375 z m -0.0156,-4.90625 q 0,1.73438 0.48438,2.51563 0.76562,1.26562 2.09375,1.26562 1.07812,0 1.85937,-0.9375 0.78125,-0.9375 0.78125,-2.78125 0,-1.89062 -0.75,-2.79687 -0.75,-0.90625 -1.82812,-0.90625 -1.0625,0 -1.85938,0.9375 -0.78125,0.9375 -0.78125,2.70312 z m 15.20386,3.71875 q -0.92188,0.76563 -1.76563,1.09375 -0.82812,0.3125 -1.79687,0.3125 -1.59375,0 -2.45313,-0.78125 -0.85937,-0.78125 -0.85937,-1.98437 0,-0.71875 0.32812,-1.29688 0.32813,-0.59375 0.84375,-0.9375 0.53125,-0.35937 1.1875,-0.54687 0.46875,-0.125 1.45313,-0.25 1.98437,-0.23438 2.92187,-0.5625 0.0156,-0.34375 0.0156,-0.42188 0,-1 -0.46875,-1.42187 -0.625,-0.54688 -1.875,-0.54688 -1.15625,0 -1.70313,0.40625 -0.54687,0.40625 -0.8125,1.42188 l -1.60937,-0.21875 q 0.21875,-1.01563 0.71875,-1.64063 0.5,-0.64062 1.45312,-0.98437 0.95313,-0.34375 2.1875,-0.34375 1.25,0 2.01563,0.29687 0.78125,0.28125 1.14062,0.73438 0.375,0.4375 0.51563,1.10937 0.0781,0.42188 0.0781,1.51563 v 2.1875 q 0,2.28125 0.10938,2.89062 0.10937,0.59375 0.40625,1.15625 h -1.70313 q -0.26562,-0.51562 -0.32812,-1.1875 z m -0.14063,-3.67187 q -0.89062,0.375 -2.67187,0.625 -1.01563,0.14062 -1.4375,0.32812 -0.42188,0.1875 -0.65625,0.53125 -0.21875,0.34375 -0.21875,0.78125 0,0.65625 0.5,1.09375 0.5,0.4375 1.45312,0.4375 0.9375,0 1.67188,-0.40625 0.75,-0.42187 1.09375,-1.14062 0.26562,-0.5625 0.26562,-1.64063 z m 4.15693,4.85937 v -13.35937 h 1.64062 v 13.35937 z" />
  <path
     style="fill:#ffffff;fill-rule:nonzero"
     inkscape:connector-curvature="0"
     id="path35"
     d="m 635.12614,195.32495 v -13.35937 h 1.8125 l 7.01562,10.48437 v -10.48437 h 1.6875 v 13.35937 h -1.8125 l -7.01562,-10.5 v 10.5 z m 19.91046,-3.10937 1.6875,0.20312 q -0.40625,1.48438 -1.48437,2.3125 -1.07813,0.8125 -2.76563,0.8125 -2.125,0 -3.375,-1.29687 -1.23437,-1.3125 -1.23437,-3.67188 0,-2.45312 1.25,-3.79687 1.26562,-1.34375 3.26562,-1.34375 1.9375,0 3.15625,1.32812 1.23438,1.3125 1.23438,3.70313 0,0.15625 0,0.4375 h -7.21875 q 0.0937,1.59375 0.90625,2.45312 0.8125,0.84375 2.01562,0.84375 0.90625,0 1.54688,-0.46875 0.64062,-0.48437 1.01562,-1.51562 z m -5.39062,-2.65625 h 5.40625 q -0.10938,-1.21875 -0.625,-1.82813 -0.78125,-0.95312 -2.03125,-0.95312 -1.125,0 -1.90625,0.76562 -0.76563,0.75 -0.84375,2.01563 z m 12.71942,4.29687 0.23437,1.45313 q -0.6875,0.14062 -1.23437,0.14062 -0.89063,0 -1.39063,-0.28125 -0.48437,-0.28125 -0.6875,-0.73437 -0.20312,-0.46875 -0.20312,-1.9375 v -5.57813 h -1.20313 v -1.26562 h 1.20313 v -2.39063 l 1.625,-0.98437 v 3.375 h 1.65625 v 1.26562 h -1.65625 v 5.67188 q 0,0.6875 0.0781,0.89062 0.0937,0.20313 0.28125,0.32813 0.20313,0.10937 0.57813,0.10937 0.26562,0 0.71875,-0.0625 z m 3.38647,1.46875 -2.96875,-9.67187 h 1.70313 l 1.53125,5.57812 0.57812,2.07813 q 0.0469,-0.15625 0.5,-2 l 1.54688,-5.65625 h 1.6875 l 1.4375,5.60937 0.48437,1.84375 0.5625,-1.85937 1.65625,-5.59375 h 1.59375 l -3.03125,9.67187 H 671.33 l -1.53125,-5.79687 -0.375,-1.64063 -1.95313,7.4375 z m 11.08228,-4.84375 q 0,-2.6875 1.48437,-3.96875 1.25,-1.07812 3.04688,-1.07812 2,0 3.26562,1.3125 1.26563,1.29687 1.26563,3.60937 0,1.85938 -0.5625,2.9375 -0.5625,1.0625 -1.64063,1.65625 -1.0625,0.59375 -2.32812,0.59375 -2.03125,0 -3.28125,-1.29687 -1.25,-1.3125 -1.25,-3.76563 z m 1.6875,0 q 0,1.85938 0.79687,2.79688 0.8125,0.92187 2.04688,0.92187 1.21875,0 2.03125,-0.92187 0.8125,-0.9375 0.8125,-2.84375 0,-1.79688 -0.8125,-2.71875 -0.8125,-0.92188 -2.03125,-0.92188 -1.23438,0 -2.04688,0.92188 -0.79687,0.90625 -0.79687,2.76562 z m 9.28198,4.84375 v -9.67187 h 1.46875 v 1.46875 q 0.5625,-1.03125 1.03125,-1.35938 0.48437,-0.32812 1.0625,-0.32812 0.82812,0 1.6875,0.53125 l -0.5625,1.51562 q -0.60938,-0.35937 -1.20313,-0.35937 -0.54687,0 -0.96875,0.32812 -0.42187,0.32813 -0.60937,0.89063 -0.28125,0.875 -0.28125,1.92187 v 5.0625 z m 6.22833,0 v -13.35937 h 1.64063 v 7.625 l 3.89062,-3.9375 h 2.10938 l -3.6875,3.59375 4.0625,6.07812 h -2.01563 l -3.20312,-4.95312 -1.15625,1.125 v 3.82812 z" />
  <path
     style="fill:#ffffff;fill-rule:nonzero"
     inkscape:connector-curvature="0"
     id="path41"
     d="M 130.61098,88.324953 V 74.965578 h 9.65625 v 1.578125 h -7.875 v 4.09375 h 7.375 v 1.5625 h -7.375 v 4.54688 h 8.1875 v 1.57812 z m 12.2092,0 v -9.671875 h 1.46875 v 1.375 q 1.0625,-1.59375 3.07812,-1.59375 0.875,0 1.60938,0.3125 0.73437,0.3125 1.09375,0.828125 0.375,0.5 0.51562,1.203125 0.0937,0.453125 0.0937,1.59375 v 5.953125 h -1.64062 v -5.890625 q 0,-1 -0.20313,-1.484375 -0.1875,-0.5 -0.67187,-0.796875 -0.48438,-0.296875 -1.14063,-0.296875 -1.04687,0 -1.8125,0.671875 -0.75,0.65625 -0.75,2.515625 v 5.28125 z m 13.06321,0 -3.6875,-9.671875 h 1.73438 l 2.07812,5.796875 q 0.32813,0.9375 0.625,1.9375 0.20313,-0.76562 0.60938,-1.828125 l 2.14062,-5.90625 h 1.6875 l -3.65625,9.671875 z m 6.64063,-11.46875 v -1.890625 h 1.64062 v 1.890625 z m 0,11.46875 v -9.671875 h 1.64062 v 9.671875 z m 4.1292,0 v -9.671875 h 1.46875 v 1.46875 q 0.5625,-1.03125 1.03125,-1.359375 0.48437,-0.328125 1.0625,-0.328125 0.82812,0 1.6875,0.53125 l -0.5625,1.515625 q -0.60938,-0.359375 -1.20313,-0.359375 -0.54687,0 -0.96875,0.328125 -0.42187,0.328125 -0.60937,0.890625 -0.28125,0.875 -0.28125,1.921875 v 5.0625 z m 5.61892,-4.84375 q 0,-2.6875 1.48438,-3.96875 1.25,-1.078125 3.04687,-1.078125 2,0 3.26563,1.3125 1.26562,1.296875 1.26562,3.609375 0,1.85938 -0.5625,2.9375 -0.5625,1.0625 -1.64062,1.65625 -1.0625,0.59375 -2.32813,0.59375 -2.03125,0 -3.28125,-1.29687 -1.25,-1.3125 -1.25,-3.76563 z m 1.6875,0 q 0,1.85938 0.79688,2.79688 0.8125,0.92187 2.04687,0.92187 1.21875,0 2.03125,-0.92187 0.8125,-0.9375 0.8125,-2.843755 0,-1.796875 -0.8125,-2.71875 -0.8125,-0.921875 -2.03125,-0.921875 -1.23437,0 -2.04687,0.921875 -0.79688,0.90625 -0.79688,2.765625 z m 9.29758,4.84375 v -9.671875 h 1.46875 v 1.375 q 1.0625,-1.59375 3.07812,-1.59375 0.875,0 1.60938,0.3125 0.73437,0.3125 1.09375,0.828125 0.375,0.5 0.51562,1.203125 0.0937,0.453125 0.0937,1.59375 v 5.953125 h -1.64062 v -5.890625 q 0,-1 -0.20313,-1.484375 -0.1875,-0.5 -0.67187,-0.796875 -0.48438,-0.296875 -1.14063,-0.296875 -1.04687,0 -1.8125,0.671875 -0.75,0.65625 -0.75,2.515625 v 5.28125 z m 10.37573,0 v -9.671875 h 1.46875 v 1.359375 q 0.45313,-0.71875 1.20313,-1.140625 0.76562,-0.4375 1.71875,-0.4375 1.07812,0 1.76562,0.453125 0.6875,0.4375 0.96875,1.234375 1.15625,-1.6875 2.98438,-1.6875 1.45312,0 2.21875,0.796875 0.78125,0.796875 0.78125,2.453125 v 6.640625 h -1.64063 v -6.09375 q 0,-0.984375 -0.15625,-1.40625 -0.15625,-0.4375 -0.57812,-0.703125 -0.42188,-0.265625 -0.98438,-0.265625 -1.01562,0 -1.6875,0.6875 -0.67187,0.671875 -0.67187,2.15625 v 5.625 h -1.64063 v -6.28125 q 0,-1.09375 -0.40625,-1.640625 -0.40625,-0.546875 -1.3125,-0.546875 -0.6875,0 -1.28125,0.359375 -0.59375,0.359375 -0.85937,1.0625 -0.25,0.703125 -0.25,2.03125 v 5.015625 z m 22.1658,-3.10937 1.6875,0.20312 q -0.40625,1.48438 -1.48437,2.3125 -1.07813,0.8125 -2.76563,0.8125 -2.125,0 -3.375,-1.29687 -1.23437,-1.3125 -1.23437,-3.67188 0,-2.453125 1.25,-3.796875 1.26562,-1.34375 3.26562,-1.34375 1.9375,0 3.15625,1.328125 1.23438,1.3125 1.23438,3.703125 0,0.15625 0,0.4375 h -7.21875 q 0.0937,1.593755 0.90625,2.453125 0.8125,0.84375 2.01562,0.84375 0.90625,0 1.54688,-0.46875 0.64062,-0.48437 1.01562,-1.51562 z m -5.39062,-2.656255 h 5.40625 q -0.10938,-1.21875 -0.625,-1.828125 -0.78125,-0.953125 -2.03125,-0.953125 -1.125,0 -1.90625,0.765625 -0.76563,0.75 -0.84375,2.015625 z m 9.14133,5.765625 v -9.671875 h 1.46875 v 1.375 q 1.0625,-1.59375 3.07812,-1.59375 0.875,0 1.60938,0.3125 0.73437,0.3125 1.09375,0.828125 0.375,0.5 0.51562,1.203125 0.0937,0.453125 0.0937,1.59375 v 5.953125 h -1.64062 v -5.890625 q 0,-1 -0.20313,-1.484375 -0.1875,-0.5 -0.67187,-0.796875 -0.48438,-0.296875 -1.14063,-0.296875 -1.04687,0 -1.8125,0.671875 -0.75,0.65625 -0.75,2.515625 v 5.28125 z m 13.95385,-1.46875 0.23438,1.45313 q -0.6875,0.14062 -1.23438,0.14062 -0.89062,0 -1.39062,-0.28125 -0.48438,-0.28125 -0.6875,-0.73437 -0.20313,-0.46875 -0.20313,-1.9375 v -5.57813 h -1.20312 v -1.265625 h 1.20312 v -2.390625 l 1.625,-0.984375 v 3.375 h 1.65625 v 1.265625 h -1.65625 v 5.67188 q 0,0.6875 0.0781,0.89062 0.0937,0.20313 0.28125,0.32813 0.20312,0.10937 0.57812,0.10937 0.26563,0 0.71875,-0.0625 z m 6.33536,-5.125 q 0,-2.359375 0.48438,-3.796875 0.48437,-1.453125 1.4375,-2.234375 0.96875,-0.78125 2.42187,-0.78125 1.07813,0 1.89063,0.4375 0.8125,0.421875 1.32812,1.25 0.53125,0.8125 0.82813,1.984375 0.3125,1.15625 0.3125,3.140625 0,2.359375 -0.48438,3.8125 -0.48437,1.4375 -1.45312,2.23438 -0.95313,0.78125 -2.42188,0.78125 -1.92187,0 -3.03125,-1.39063 -1.3125,-1.67187 -1.3125,-5.4375 z m 1.67188,0 q 0,3.29688 0.76562,4.39063 0.78125,1.07812 1.90625,1.07812 1.14063,0 1.90625,-1.09375 0.76563,-1.09375 0.76563,-4.375 0,-3.296875 -0.76563,-4.375 -0.76562,-1.078125 -1.92187,-1.078125 -1.125,0 -1.79688,0.953125 -0.85937,1.21875 -0.85937,4.5 z" />
  <path
     style="fill:#ffffff;fill-rule:nonzero"
     inkscape:connector-curvature="0"
     id="path47"
     d="M 349.92555,88.324953 V 74.965578 h 1.78125 v 11.781255 h 6.5625 v 1.57812 z m 16.8757,-3.10937 1.6875,0.20312 q -0.40625,1.48438 -1.48437,2.3125 -1.07813,0.8125 -2.76563,0.8125 -2.125,0 -3.375,-1.29687 -1.23437,-1.3125 -1.23437,-3.67188 0,-2.453125 1.25,-3.796875 1.26562,-1.34375 3.26562,-1.34375 1.9375,0 3.15625,1.328125 1.23438,1.3125 1.23438,3.703125 0,0.15625 0,0.4375 h -7.21875 q 0.0937,1.593755 0.90625,2.453125 0.8125,0.84375 2.01562,0.84375 0.90625,0 1.54688,-0.46875 0.64062,-0.48437 1.01562,-1.51562 z m -5.39062,-2.656255 h 5.40625 q -0.10938,-1.21875 -0.625,-1.828125 -0.78125,-0.953125 -2.03125,-0.953125 -1.125,0 -1.90625,0.765625 -0.76563,0.75 -0.84375,2.015625 z m 15.45385,4.578125 q -0.92187,0.76563 -1.76562,1.09375 -0.82813,0.3125 -1.79688,0.3125 -1.59375,0 -2.45312,-0.78125 -0.85938,-0.78125 -0.85938,-1.98437 0,-0.71875 0.32813,-1.29688 0.32812,-0.59375 0.84375,-0.9375 0.53125,-0.359375 1.1875,-0.546875 0.46875,-0.125 1.45312,-0.25 1.98438,-0.234375 2.92188,-0.5625 0.0156,-0.34375 0.0156,-0.421875 0,-1 -0.46875,-1.421875 -0.625,-0.546875 -1.875,-0.546875 -1.15625,0 -1.70312,0.40625 -0.54688,0.40625 -0.8125,1.421875 l -1.60938,-0.21875 q 0.21875,-1.015625 0.71875,-1.640625 0.5,-0.640625 1.45313,-0.984375 0.95312,-0.34375 2.1875,-0.34375 1.25,0 2.01562,0.296875 0.78125,0.28125 1.14063,0.734375 0.375,0.4375 0.51562,1.109375 0.0781,0.421875 0.0781,1.515625 v 2.1875 q 0,2.281255 0.10937,2.890625 0.10938,0.59375 0.40625,1.15625 h -1.70312 q -0.26563,-0.51562 -0.32813,-1.1875 z m -0.14062,-3.671875 q -0.89063,0.375 -2.67188,0.625 -1.01562,0.140625 -1.4375,0.328125 -0.42187,0.1875 -0.65625,0.53125 -0.21875,0.34375 -0.21875,0.78125 0,0.65625 0.5,1.09375 0.5,0.4375 1.45313,0.4375 0.9375,0 1.67187,-0.40625 0.75,-0.42187 1.09375,-1.14062 0.26563,-0.5625 0.26563,-1.64063 z m 4.1882,4.859375 v -9.671875 h 1.46875 v 1.46875 q 0.5625,-1.03125 1.03125,-1.359375 0.48438,-0.328125 1.0625,-0.328125 0.82813,0 1.6875,0.53125 l -0.5625,1.515625 q -0.60937,-0.359375 -1.20312,-0.359375 -0.54688,0 -0.96875,0.328125 -0.42188,0.328125 -0.60938,0.890625 -0.28125,0.875 -0.28125,1.921875 v 5.0625 z m 6.2283,0 v -9.671875 h 1.46875 v 1.375 q 1.0625,-1.59375 3.07813,-1.59375 0.875,0 1.60937,0.3125 0.73438,0.3125 1.09375,0.828125 0.375,0.5 0.51563,1.203125 0.0937,0.453125 0.0937,1.59375 v 5.953125 h -1.64063 v -5.890625 q 0,-1 -0.20312,-1.484375 -0.1875,-0.5 -0.67188,-0.796875 -0.48437,-0.296875 -1.14062,-0.296875 -1.04688,0 -1.8125,0.671875 -0.75,0.65625 -0.75,2.515625 v 5.28125 z m 17.00073,-3.10937 1.6875,0.20312 q -0.40625,1.48438 -1.48437,2.3125 -1.07813,0.8125 -2.76563,0.8125 -2.125,0 -3.375,-1.29687 -1.23437,-1.3125 -1.23437,-3.67188 0,-2.453125 1.25,-3.796875 1.26562,-1.34375 3.26562,-1.34375 1.9375,0 3.15625,1.328125 1.23438,1.3125 1.23438,3.703125 0,0.15625 0,0.4375 h -7.21875 q 0.0937,1.593755 0.90625,2.453125 0.8125,0.84375 2.01562,0.84375 0.90625,0 1.54688,-0.46875 0.64062,-0.48437 1.01562,-1.51562 z m -5.39062,-2.656255 h 5.40625 q -0.10938,-1.21875 -0.625,-1.828125 -0.78125,-0.953125 -2.03125,-0.953125 -1.125,0 -1.90625,0.765625 -0.76563,0.75 -0.84375,2.015625 z m 9.1257,5.765625 v -9.671875 h 1.46875 v 1.46875 q 0.5625,-1.03125 1.03125,-1.359375 0.48438,-0.328125 1.0625,-0.328125 0.82813,0 1.6875,0.53125 l -0.5625,1.515625 q -0.60937,-0.359375 -1.20312,-0.359375 -0.54688,0 -0.96875,0.328125 -0.42188,0.328125 -0.60938,0.890625 -0.28125,0.875 -0.28125,1.921875 v 5.0625 z m 10.9585,-6.59375 q 0,-2.359375 0.48437,-3.796875 0.48438,-1.453125 1.4375,-2.234375 0.96872,-0.78125 2.42185,-0.78125 1.07812,0 1.89062,0.4375 0.8125,0.421875 1.32813,1.25 0.53125,0.8125 0.82812,1.984375 0.3125,1.15625 0.3125,3.140625 0,2.359375 -0.48437,3.8125 -0.48438,1.4375 -1.45313,2.23438 -0.95312,0.78125 -2.42187,0.78125 -1.92185,0 -3.03122,-1.39063 -1.3125,-1.67187 -1.3125,-5.4375 z m 1.67187,0 q 0,3.29688 0.76563,4.39063 0.78122,1.07812 1.90622,1.07812 1.14062,0 1.90625,-1.09375 0.76562,-1.09375 0.76562,-4.375 0,-3.296875 -0.76562,-4.375 -0.76563,-1.078125 -1.92188,-1.078125 -1.125,0 -1.79684,0.953125 -0.85938,1.21875 -0.85938,4.5 z" />
  <path
     style="fill:#000000;fill-opacity:0;fill-rule:evenodd"
     inkscape:connector-curvature="0"
     id="path49"
     d="m 0.537026,63.184483 h 79.968496 v 36.44094 H 0.537026 Z" />
  <path
     style="fill:#ffffff;fill-rule:nonzero"
     inkscape:connector-curvature="0"
     id="path51"
     d="m 17.224522,84.870108 v -1.578125 h 5.65625 v 4.95313 q -1.29687,1.04687 -2.6875,1.57812 -1.375,0.51563 -2.84375,0.51563 -1.96875,0 -3.57812,-0.84375 -1.60938,-0.84375 -2.42188,-2.4375 -0.8125,-1.59375 -0.8125,-3.562505 0,-1.953125 0.8125,-3.640625 0.8125,-1.6875 2.34375,-2.5 1.53125,-0.828125 3.51563,-0.828125 1.45312,0 2.625,0.46875 1.17187,0.46875 1.82812,1.3125 0.67188,0.828125 1.01563,2.171875 l -1.59375,0.4375 q -0.29688,-1.015625 -0.75,-1.59375 -0.4375,-0.59375 -1.26563,-0.9375 -0.82812,-0.34375 -1.84375,-0.34375 -1.20312,0 -2.09375,0.375 -0.89062,0.359375 -1.4375,0.96875 -0.53125,0.59375 -0.82812,1.3125 -0.51563,1.234375 -0.51563,2.6875 0,1.78125 0.60938,2.98438 0.625,1.20312 1.79687,1.79687 1.17188,0.57813 2.5,0.57813 1.14063,0 2.23438,-0.4375 1.09375,-0.45313 1.65625,-0.95313 v -2.484375 z m 8.26143,5.234375 V 76.745108 h 5.04688 q 1.32812,0 2.03125,0.125 0.96875,0.171875 1.64062,0.640625 0.67188,0.453125 1.07813,1.28125 0.40625,0.828125 0.40625,1.828125 0,1.703125 -1.09375,2.890625 -1.07813,1.171875 -3.92188,1.171875 h -3.42187 v 5.421875 z m 1.76563,-7 h 3.45312 q 1.71875,0 2.4375,-0.640625 0.71875,-0.640625 0.71875,-1.796875 0,-0.84375 -0.42187,-1.4375 -0.42188,-0.59375 -1.125,-0.78125 -0.4375,-0.125 -1.64063,-0.125 h -3.42187 z m 19.44358,-6.359375 h 1.76562 v 7.71875 q 0,2.015625 -0.45312,3.203125 -0.45313,1.1875 -1.64063,1.9375 -1.1875,0.73438 -3.125,0.73438 -1.875,0 -3.07812,-0.64063 -1.1875,-0.65625 -1.70313,-1.875 -0.5,-1.23437 -0.5,-3.359375 v -7.71875 h 1.76563 v 7.71875 q 0,1.734375 0.3125,2.562505 0.32812,0.8125 1.10937,1.26562 0.79688,0.45313 1.9375,0.45313 1.95313,0 2.78125,-0.89063 0.82813,-0.89062 0.82813,-3.390625 z m 9.23437,6.765625 q 0,-2.359375 0.48438,-3.796875 0.48437,-1.453125 1.4375,-2.234375 0.96875,-0.78125 2.42187,-0.78125 1.07813,0 1.89063,0.4375 0.8125,0.421875 1.32812,1.25 0.53125,0.8125 0.82813,1.984375 0.3125,1.15625 0.3125,3.140625 0,2.35938 -0.48438,3.8125 -0.48437,1.4375 -1.45312,2.23438 -0.95313,0.78125 -2.42188,0.78125 -1.92187,0 -3.03125,-1.39063 -1.3125,-1.67187 -1.3125,-5.4375 z m 1.67188,0 q 0,3.29688 0.76562,4.39063 0.78125,1.07812 1.90625,1.07812 1.14063,0 1.90625,-1.09375 0.76563,-1.09375 0.76563,-4.375 0,-3.296875 -0.76563,-4.375 -0.76562,-1.078125 -1.92187,-1.078125 -1.125,0 -1.79688,0.953125 -0.85937,1.21875 -0.85937,4.5 z" />
  <path
     style="fill:#000000;fill-opacity:0;fill-rule:evenodd"
     inkscape:connector-curvature="0"
     id="path53"
     d="m 278.92549,81.404953 h 48" />
  <path
     style="fill-rule:evenodd;stroke:#000000;stroke-width:2;stroke-linecap:butt;stroke-linejoin:round"
     inkscape:connector-curvature="0"
     id="path55"
     d="m 285.77965,81.404953 h 34.29166" />
  <path
     style="fill:#000000;fill-rule:evenodd;stroke:#000000;stroke-width:2;stroke-linecap:butt"
     inkscape:connector-curvature="0"
     id="path57"
     d="m 285.77965,81.404953 2.24918,-2.249161 -6.17954,2.249161 6.17954,2.249168 z" />
  <path
     style="fill:#000000;fill-rule:evenodd;stroke:#000000;stroke-width:2;stroke-linecap:butt"
     inkscape:connector-curvature="0"
     id="path59"
     d="m 320.07131,81.404953 -2.24918,2.249168 6.17954,-2.249168 -6.17954,-2.249161 z" />
  <path
     style="fill:#b45f06;fill-rule:evenodd"
     d="M 81.794922 139.45117 L 81.794922 215.89258 L 466.80273 215.89258 L 466.80273 139.45117 L 81.794922 139.45117 z M 107.03125 155.26367 L 271.54492 155.26367 C 272.27898 155.26367 273.00167 155.37235 273.69141 155.58203 C 274.15123 155.72182 274.59554 155.90651 275.01953 156.13281 C 275.44352 156.35911 275.84741 156.62809 276.22266 156.93555 C 276.41027 157.08929 276.59065 157.25276 276.76367 157.42578 C 277.10971 157.77182 277.418 158.1476 277.68555 158.54883 C 277.68584 158.54926 277.68526 158.55035 277.68555 158.55078 C 277.81896 158.75096 277.94375 158.95647 278.05664 159.16797 C 278.0569 159.16846 278.05638 159.16943 278.05664 159.16992 C 278.39566 159.80546 278.64153 160.4885 278.7832 161.19727 C 278.87776 161.67014 278.92578 162.15516 278.92578 162.64453 L 278.92578 192.16602 C 278.92578 193.43985 278.60327 194.6378 278.03516 195.68359 C 277.8079 196.10192 277.54107 196.4968 277.24023 196.86133 C 275.8865 198.50167 273.83782 199.54687 271.54492 199.54688 L 107.03125 199.54688 C 106.77714 199.54688 106.52484 199.53288 106.27734 199.50781 C 106.2767 199.50775 106.27604 199.50788 106.27539 199.50781 C 105.28353 199.40708 104.34992 199.11027 103.51367 198.65625 C 103.51318 198.65598 103.51221 198.65652 103.51172 198.65625 C 101.62928 197.63365 100.24321 195.8164 99.800781 193.6543 C 99.702464 193.17383 99.650391 192.67555 99.650391 192.16602 L 99.650391 162.64453 C 99.650391 162.135 99.702464 161.63672 99.800781 161.15625 C 99.948137 160.43614 100.20057 159.75401 100.54102 159.12695 C 100.54128 159.12646 100.54075 159.12549 100.54102 159.125 C 101.56362 157.24256 103.38087 155.85649 105.54297 155.41406 C 106.02344 155.31574 106.52172 155.26367 107.03125 155.26367 z M 334.31836 155.26367 L 442.67578 155.26367 C 444.63324 155.26367 446.51037 156.04163 447.89453 157.42578 C 449.27869 158.80992 450.05664 160.68704 450.05664 162.64453 L 450.05664 192.16602 C 450.05664 196.24228 446.75201 199.54687 442.67578 199.54688 L 334.31836 199.54688 C 330.24209 199.54688 326.93945 196.24228 326.93945 192.16602 L 326.93945 162.64453 C 326.93945 158.56827 330.24209 155.26367 334.31836 155.26367 z "
     id="path61" />
  <path
     style="fill-rule:evenodd;stroke:#000000;stroke-width:1;stroke-linecap:butt;stroke-linejoin:round"
     inkscape:connector-curvature="0"
     id="path63"
     d="M 81.794252,139.45131 H 466.80212 v 76.44095 H 81.794252 Z" />
  <path
     style="fill:#ffffff;fill-rule:nonzero"
     inkscape:connector-curvature="0"
     id="path69"
     d="m 130.61098,184.32495 v -13.35937 h 9.65625 v 1.57812 h -7.875 v 4.09375 h 7.375 v 1.5625 h -7.375 v 4.54688 h 8.1875 v 1.57812 z m 12.2092,0 v -9.67187 h 1.46875 v 1.375 q 1.0625,-1.59375 3.07812,-1.59375 0.875,0 1.60938,0.3125 0.73437,0.3125 1.09375,0.82812 0.375,0.5 0.51562,1.20313 0.0937,0.45312 0.0937,1.59375 v 5.95312 h -1.64062 v -5.89062 q 0,-1 -0.20313,-1.48438 -0.1875,-0.5 -0.67187,-0.79687 -0.48438,-0.29688 -1.14063,-0.29688 -1.04687,0 -1.8125,0.67188 -0.75,0.65625 -0.75,2.51562 v 5.28125 z m 13.06321,0 -3.6875,-9.67187 h 1.73438 l 2.07812,5.79687 q 0.32813,0.9375 0.625,1.9375 0.20313,-0.76562 0.60938,-1.82812 l 2.14062,-5.90625 h 1.6875 l -3.65625,9.67187 z m 6.64063,-11.46875 v -1.89062 h 1.64062 v 1.89062 z m 0,11.46875 v -9.67187 h 1.64062 v 9.67187 z m 4.1292,0 v -9.67187 h 1.46875 v 1.46875 q 0.5625,-1.03125 1.03125,-1.35938 0.48437,-0.32812 1.0625,-0.32812 0.82812,0 1.6875,0.53125 l -0.5625,1.51562 q -0.60938,-0.35937 -1.20313,-0.35937 -0.54687,0 -0.96875,0.32812 -0.42187,0.32813 -0.60937,0.89063 -0.28125,0.875 -0.28125,1.92187 v 5.0625 z m 5.61892,-4.84375 q 0,-2.6875 1.48438,-3.96875 1.25,-1.07812 3.04687,-1.07812 2,0 3.26563,1.3125 1.26562,1.29687 1.26562,3.60937 0,1.85938 -0.5625,2.9375 -0.5625,1.0625 -1.64062,1.65625 -1.0625,0.59375 -2.32813,0.59375 -2.03125,0 -3.28125,-1.29687 -1.25,-1.3125 -1.25,-3.76563 z m 1.6875,0 q 0,1.85938 0.79688,2.79688 0.8125,0.92187 2.04687,0.92187 1.21875,0 2.03125,-0.92187 0.8125,-0.9375 0.8125,-2.84375 0,-1.79688 -0.8125,-2.71875 -0.8125,-0.92188 -2.03125,-0.92188 -1.23437,0 -2.04687,0.92188 -0.79688,0.90625 -0.79688,2.76562 z m 9.29758,4.84375 v -9.67187 h 1.46875 v 1.375 q 1.0625,-1.59375 3.07812,-1.59375 0.875,0 1.60938,0.3125 0.73437,0.3125 1.09375,0.82812 0.375,0.5 0.51562,1.20313 0.0937,0.45312 0.0937,1.59375 v 5.95312 h -1.64062 v -5.89062 q 0,-1 -0.20313,-1.48438 -0.1875,-0.5 -0.67187,-0.79687 -0.48438,-0.29688 -1.14063,-0.29688 -1.04687,0 -1.8125,0.67188 -0.75,0.65625 -0.75,2.51562 v 5.28125 z m 10.37573,0 v -9.67187 h 1.46875 v 1.35937 q 0.45313,-0.71875 1.20313,-1.14062 0.76562,-0.4375 1.71875,-0.4375 1.07812,0 1.76562,0.45312 0.6875,0.4375 0.96875,1.23438 1.15625,-1.6875 2.98438,-1.6875 1.45312,0 2.21875,0.79687 0.78125,0.79688 0.78125,2.45313 v 6.64062 h -1.64063 v -6.09375 q 0,-0.98437 -0.15625,-1.40625 -0.15625,-0.4375 -0.57812,-0.70312 -0.42188,-0.26563 -0.98438,-0.26563 -1.01562,0 -1.6875,0.6875 -0.67187,0.67188 -0.67187,2.15625 v 5.625 h -1.64063 v -6.28125 q 0,-1.09375 -0.40625,-1.64062 -0.40625,-0.54688 -1.3125,-0.54688 -0.6875,0 -1.28125,0.35938 -0.59375,0.35937 -0.85937,1.0625 -0.25,0.70312 -0.25,2.03125 v 5.01562 z m 22.1658,-3.10937 1.6875,0.20312 q -0.40625,1.48438 -1.48437,2.3125 -1.07813,0.8125 -2.76563,0.8125 -2.125,0 -3.375,-1.29687 -1.23437,-1.3125 -1.23437,-3.67188 0,-2.45312 1.25,-3.79687 1.26562,-1.34375 3.26562,-1.34375 1.9375,0 3.15625,1.32812 1.23438,1.3125 1.23438,3.70313 0,0.15625 0,0.4375 h -7.21875 q 0.0937,1.59375 0.90625,2.45312 0.8125,0.84375 2.01562,0.84375 0.90625,0 1.54688,-0.46875 0.64062,-0.48437 1.01562,-1.51562 z m -5.39062,-2.65625 h 5.40625 q -0.10938,-1.21875 -0.625,-1.82813 -0.78125,-0.95312 -2.03125,-0.95312 -1.125,0 -1.90625,0.76562 -0.76563,0.75 -0.84375,2.01563 z m 9.14133,5.76562 v -9.67187 h 1.46875 v 1.375 q 1.0625,-1.59375 3.07812,-1.59375 0.875,0 1.60938,0.3125 0.73437,0.3125 1.09375,0.82812 0.375,0.5 0.51562,1.20313 0.0937,0.45312 0.0937,1.59375 v 5.95312 h -1.64062 v -5.89062 q 0,-1 -0.20313,-1.48438 -0.1875,-0.5 -0.67187,-0.79687 -0.48438,-0.29688 -1.14063,-0.29688 -1.04687,0 -1.8125,0.67188 -0.75,0.65625 -0.75,2.51562 v 5.28125 z m 13.95385,-1.46875 0.23438,1.45313 q -0.6875,0.14062 -1.23438,0.14062 -0.89062,0 -1.39062,-0.28125 -0.48438,-0.28125 -0.6875,-0.73437 -0.20313,-0.46875 -0.20313,-1.9375 v -5.57813 h -1.20312 v -1.26562 h 1.20312 v -2.39063 l 1.625,-0.98437 v 3.375 h 1.65625 v 1.26562 h -1.65625 v 5.67188 q 0,0.6875 0.0781,0.89062 0.0937,0.20313 0.28125,0.32813 0.20312,0.10937 0.57812,0.10937 0.26563,0 0.71875,-0.0625 z m 12.50724,1.46875 h -1.64063 v -10.45312 q -0.59375,0.5625 -1.5625,1.14062 -0.95312,0.5625 -1.71875,0.84375 v -1.59375 q 1.375,-0.64062 2.40625,-1.5625 1.03125,-0.92187 1.45313,-1.78125 h 1.0625 z" />
  <path
     style="fill:#121212;fill-rule:evenodd;opacity:0"
     inkscape:connector-curvature="0"
     id="path71"
     d="m 326.93861,162.64394 v 0 c 0,-4.07626 3.30444,-7.38072 7.38071,-7.38072 h 108.35669 c 1.95746,0 3.83477,0.77762 5.21893,2.16177 1.38416,1.38414 2.16174,3.26146 2.16174,5.21895 v 29.52202 c 0,4.07626 -3.30444,7.38072 -7.38067,7.38072 H 334.31932 c -4.07627,0 -7.38071,-3.30446 -7.38071,-7.38072 z" />
  <path
     style="fill:#ffffff;fill-rule:nonzero"
     inkscape:connector-curvature="0"
     id="path75"
     d="m 349.92555,184.32495 v -13.35937 h 1.78125 v 11.78125 h 6.5625 v 1.57812 z m 16.8757,-3.10937 1.6875,0.20312 q -0.40625,1.48438 -1.48437,2.3125 -1.07813,0.8125 -2.76563,0.8125 -2.125,0 -3.375,-1.29687 -1.23437,-1.3125 -1.23437,-3.67188 0,-2.45312 1.25,-3.79687 1.26562,-1.34375 3.26562,-1.34375 1.9375,0 3.15625,1.32812 1.23438,1.3125 1.23438,3.70313 0,0.15625 0,0.4375 h -7.21875 q 0.0937,1.59375 0.90625,2.45312 0.8125,0.84375 2.01562,0.84375 0.90625,0 1.54688,-0.46875 0.64062,-0.48437 1.01562,-1.51562 z m -5.39062,-2.65625 h 5.40625 q -0.10938,-1.21875 -0.625,-1.82813 -0.78125,-0.95312 -2.03125,-0.95312 -1.125,0 -1.90625,0.76562 -0.76563,0.75 -0.84375,2.01563 z m 15.45385,4.57812 q -0.92187,0.76563 -1.76562,1.09375 -0.82813,0.3125 -1.79688,0.3125 -1.59375,0 -2.45312,-0.78125 -0.85938,-0.78125 -0.85938,-1.98437 0,-0.71875 0.32813,-1.29688 0.32812,-0.59375 0.84375,-0.9375 0.53125,-0.35937 1.1875,-0.54687 0.46875,-0.125 1.45312,-0.25 1.98438,-0.23438 2.92188,-0.5625 0.0156,-0.34375 0.0156,-0.42188 0,-1 -0.46875,-1.42187 -0.625,-0.54688 -1.875,-0.54688 -1.15625,0 -1.70312,0.40625 -0.54688,0.40625 -0.8125,1.42188 l -1.60938,-0.21875 q 0.21875,-1.01563 0.71875,-1.64063 0.5,-0.64062 1.45313,-0.98437 0.95312,-0.34375 2.1875,-0.34375 1.25,0 2.01562,0.29687 0.78125,0.28125 1.14063,0.73438 0.375,0.4375 0.51562,1.10937 0.0781,0.42188 0.0781,1.51563 v 2.1875 q 0,2.28125 0.10937,2.89062 0.10938,0.59375 0.40625,1.15625 h -1.70312 q -0.26563,-0.51562 -0.32813,-1.1875 z m -0.14062,-3.67187 q -0.89063,0.375 -2.67188,0.625 -1.01562,0.14062 -1.4375,0.32812 -0.42187,0.1875 -0.65625,0.53125 -0.21875,0.34375 -0.21875,0.78125 0,0.65625 0.5,1.09375 0.5,0.4375 1.45313,0.4375 0.9375,0 1.67187,-0.40625 0.75,-0.42187 1.09375,-1.14062 0.26563,-0.5625 0.26563,-1.64063 z m 4.1882,4.85937 v -9.67187 h 1.46875 v 1.46875 q 0.5625,-1.03125 1.03125,-1.35938 0.48438,-0.32812 1.0625,-0.32812 0.82813,0 1.6875,0.53125 l -0.5625,1.51562 q -0.60937,-0.35937 -1.20312,-0.35937 -0.54688,0 -0.96875,0.32812 -0.42188,0.32813 -0.60938,0.89063 -0.28125,0.875 -0.28125,1.92187 v 5.0625 z m 6.2283,0 v -9.67187 h 1.46875 v 1.375 q 1.0625,-1.59375 3.07813,-1.59375 0.875,0 1.60937,0.3125 0.73438,0.3125 1.09375,0.82812 0.375,0.5 0.51563,1.20313 0.0937,0.45312 0.0937,1.59375 v 5.95312 h -1.64063 v -5.89062 q 0,-1 -0.20312,-1.48438 -0.1875,-0.5 -0.67188,-0.79687 -0.48437,-0.29688 -1.14062,-0.29688 -1.04688,0 -1.8125,0.67188 -0.75,0.65625 -0.75,2.51562 v 5.28125 z m 17.00073,-3.10937 1.6875,0.20312 q -0.40625,1.48438 -1.48437,2.3125 -1.07813,0.8125 -2.76563,0.8125 -2.125,0 -3.375,-1.29687 -1.23437,-1.3125 -1.23437,-3.67188 0,-2.45312 1.25,-3.79687 1.26562,-1.34375 3.26562,-1.34375 1.9375,0 3.15625,1.32812 1.23438,1.3125 1.23438,3.70313 0,0.15625 0,0.4375 h -7.21875 q 0.0937,1.59375 0.90625,2.45312 0.8125,0.84375 2.01562,0.84375 0.90625,0 1.54688,-0.46875 0.64062,-0.48437 1.01562,-1.51562 z m -5.39062,-2.65625 h 5.40625 q -0.10938,-1.21875 -0.625,-1.82813 -0.78125,-0.95312 -2.03125,-0.95312 -1.125,0 -1.90625,0.76562 -0.76563,0.75 -0.84375,2.01563 z m 9.1257,5.76562 v -9.67187 h 1.46875 v 1.46875 q 0.5625,-1.03125 1.03125,-1.35938 0.48438,-0.32812 1.0625,-0.32812 0.82813,0 1.6875,0.53125 l -0.5625,1.51562 q -0.60937,-0.35937 -1.20312,-0.35937 -0.54688,0 -0.96875,0.32812 -0.42188,0.32813 -0.60938,0.89063 -0.28125,0.875 -0.28125,1.92187 v 5.0625 z m 17.13034,0 h -1.64062 v -10.45312 q -0.59375,0.5625 -1.5625,1.14062 -0.9531,0.5625 -1.71872,0.84375 v -1.59375 q 1.375,-0.64062 2.40622,-1.5625 1.03125,-0.92187 1.45312,-1.78125 h 1.0625 z" />
  <path
     style="fill:#000000;fill-opacity:0;fill-rule:evenodd"
     inkscape:connector-curvature="0"
     id="path77"
     d="m 0.537026,159.18448 h 79.968496 v 36.44095 H 0.537026 Z" />
  <path
     style="fill:#ffffff;fill-rule:nonzero"
     inkscape:connector-curvature="0"
     id="path79"
     d="m 17.224522,180.8701 v -1.57813 h 5.65625 v 4.95313 q -1.29687,1.04687 -2.6875,1.57812 -1.375,0.51563 -2.84375,0.51563 -1.96875,0 -3.57812,-0.84375 -1.60938,-0.84375 -2.42188,-2.4375 -0.8125,-1.59375 -0.8125,-3.5625 0,-1.95313 0.8125,-3.64063 0.8125,-1.6875 2.34375,-2.5 1.53125,-0.82812 3.51563,-0.82812 1.45312,0 2.625,0.46875 1.17187,0.46875 1.82812,1.3125 0.67188,0.82812 1.01563,2.17187 l -1.59375,0.4375 q -0.29688,-1.01562 -0.75,-1.59375 -0.4375,-0.59375 -1.26563,-0.9375 -0.82812,-0.34375 -1.84375,-0.34375 -1.20312,0 -2.09375,0.375 -0.89062,0.35938 -1.4375,0.96875 -0.53125,0.59375 -0.82812,1.3125 -0.51563,1.23438 -0.51563,2.6875 0,1.78125 0.60938,2.98438 0.625,1.20312 1.79687,1.79687 1.17188,0.57813 2.5,0.57813 1.14063,0 2.23438,-0.4375 1.09375,-0.45313 1.65625,-0.95313 v -2.48437 z m 8.26143,5.23437 V 172.7451 h 5.04688 q 1.32812,0 2.03125,0.125 0.96875,0.17187 1.64062,0.64062 0.67188,0.45313 1.07813,1.28125 0.40625,0.82813 0.40625,1.82813 0,1.70312 -1.09375,2.89062 -1.07813,1.17188 -3.92188,1.17188 h -3.42187 v 5.42187 z m 1.76563,-7 h 3.45312 q 1.71875,0 2.4375,-0.64062 0.71875,-0.64063 0.71875,-1.79688 0,-0.84375 -0.42187,-1.4375 -0.42188,-0.59375 -1.125,-0.78125 -0.4375,-0.125 -1.64063,-0.125 h -3.42187 z m 19.44358,-6.35937 h 1.76562 v 7.71875 q 0,2.01562 -0.45312,3.20312 -0.45313,1.1875 -1.64063,1.9375 -1.1875,0.73438 -3.125,0.73438 -1.875,0 -3.07812,-0.64063 -1.1875,-0.65625 -1.70313,-1.875 -0.5,-1.23437 -0.5,-3.35937 v -7.71875 h 1.76563 v 7.71875 q 0,1.73437 0.3125,2.5625 0.32812,0.8125 1.10937,1.26562 0.79688,0.45313 1.9375,0.45313 1.95313,0 2.78125,-0.89063 0.82813,-0.89062 0.82813,-3.39062 z m 15.40625,13.35937 h -1.64063 v -10.45312 q -0.59375,0.5625 -1.5625,1.14062 -0.95312,0.5625 -1.71875,0.84375 v -1.59375 q 1.375,-0.64062 2.40625,-1.5625 1.03125,-0.92187 1.45313,-1.78125 h 1.0625 z" />
  <path
     style="fill:#000000;fill-opacity:0;fill-rule:evenodd"
     inkscape:connector-curvature="0"
     id="path81"
     d="m 278.92549,177.40496 h 48" />
  <path
     style="fill-rule:evenodd;stroke:#000000;stroke-width:2;stroke-linecap:butt;stroke-linejoin:round"
     inkscape:connector-curvature="0"
     id="path83"
     d="m 285.77965,177.40496 h 34.29166" />
  <path
     style="fill:#000000;fill-rule:evenodd;stroke:#000000;stroke-width:2;stroke-linecap:butt"
     inkscape:connector-curvature="0"
     id="path85"
     d="m 285.77965,177.40496 2.24918,-2.24918 -6.17954,2.24918 6.17954,2.24916 z" />
  <path
     style="fill:#000000;fill-rule:evenodd;stroke:#000000;stroke-width:2;stroke-linecap:butt"
     inkscape:connector-curvature="0"
     id="path87"
     d="m 320.07131,177.40496 -2.24918,2.24916 6.17954,-2.24916 -6.17954,-2.24918 z" />
  <path
     style="fill:#38761d;fill-rule:evenodd"
     d="M 81.794922 233.92578 L 81.794922 310.36719 L 466.80273 310.36719 L 466.80273 233.92578 L 81.794922 233.92578 z M 107.03125 251.26367 L 271.54492 251.26367 C 272.27898 251.26367 273.00167 251.37235 273.69141 251.58203 C 274.15123 251.72182 274.59554 251.90652 275.01953 252.13281 C 275.44352 252.35911 275.84741 252.62809 276.22266 252.93555 C 276.41027 253.08929 276.59065 253.25276 276.76367 253.42578 C 277.10971 253.77182 277.418 254.1476 277.68555 254.54883 C 277.68584 254.54926 277.68526 254.55035 277.68555 254.55078 C 277.81896 254.75096 277.94375 254.95647 278.05664 255.16797 C 278.0569 255.16846 278.05638 255.16943 278.05664 255.16992 C 278.39566 255.80546 278.64153 256.4885 278.7832 257.19727 C 278.87776 257.67014 278.92578 258.15516 278.92578 258.64453 L 278.92578 288.16602 C 278.92578 289.43984 278.60327 290.6378 278.03516 291.68359 C 277.8079 292.10192 277.54107 292.4968 277.24023 292.86133 C 275.8865 294.50167 273.83782 295.54688 271.54492 295.54688 L 107.03125 295.54688 C 106.77714 295.54688 106.52484 295.53288 106.27734 295.50781 C 106.2767 295.50775 106.27604 295.50788 106.27539 295.50781 C 105.28353 295.40708 104.34992 295.11027 103.51367 294.65625 C 103.51318 294.65598 103.51221 294.65652 103.51172 294.65625 C 101.62928 293.63365 100.24321 291.81639 99.800781 289.6543 C 99.702464 289.17383 99.650391 288.67555 99.650391 288.16602 L 99.650391 258.64453 C 99.650391 258.135 99.702464 257.63672 99.800781 257.15625 C 99.948137 256.43614 100.20057 255.75401 100.54102 255.12695 C 100.54128 255.12646 100.54075 255.12549 100.54102 255.125 C 101.56362 253.24257 103.38087 251.85649 105.54297 251.41406 C 106.02344 251.31574 106.52172 251.26367 107.03125 251.26367 z M 334.31836 251.26367 L 442.67578 251.26367 C 442.92046 251.26367 443.16293 251.27485 443.4043 251.29883 C 443.88771 251.3467 444.36183 251.44206 444.82227 251.58203 C 445.28152 251.72165 445.72687 251.9069 446.15039 252.13281 L 446.15234 252.13281 C 446.36381 252.24577 446.56939 252.37043 446.76953 252.50391 C 446.97064 252.63794 447.16546 252.78146 447.35352 252.93555 C 447.54113 253.08929 447.72151 253.25276 447.89453 253.42578 C 448.24057 253.77182 448.54886 254.1476 448.81641 254.54883 L 448.81641 254.55078 C 448.94982 254.75096 449.07462 254.95647 449.1875 255.16797 L 449.1875 255.16992 C 449.63961 256.01748 449.92568 256.94916 450.02148 257.91406 C 450.04559 258.15606 450.05664 258.39919 450.05664 258.64453 L 450.05664 288.16602 C 450.05664 288.67555 450.00457 289.17383 449.90625 289.6543 C 449.21799 293.01758 446.24248 295.54688 442.67578 295.54688 L 334.31836 295.54688 C 333.80817 295.54688 333.31112 295.49505 332.83008 295.39648 C 332.59049 295.34745 332.3555 295.28649 332.125 295.21484 L 332.12305 295.21484 C 331.89256 295.14314 331.66744 295.05988 331.44727 294.9668 L 331.44531 294.9668 C 331.2246 294.87342 331.00989 294.76988 330.80078 294.65625 C 330.59116 294.54238 330.38814 294.42008 330.19141 294.28711 C 329.99513 294.15447 329.8072 294.01175 329.625 293.86133 C 329.44274 293.71091 329.26656 293.55172 329.09961 293.38477 C 328.7657 293.05085 328.46449 292.68563 328.19922 292.29297 C 327.93395 291.90031 327.70627 291.48057 327.51953 291.03906 C 327.23942 290.3768 327.05216 289.66427 326.97656 288.91992 C 326.95136 288.6718 326.93945 288.42078 326.93945 288.16602 L 326.93945 258.64453 C 326.93945 258.39042 326.95149 258.13814 326.97656 257.89062 L 326.97656 257.88867 C 327.05216 257.14432 327.23942 256.43375 327.51953 255.77148 C 327.61267 255.55127 327.71678 255.33563 327.83008 255.12695 L 327.83008 255.125 C 327.9437 254.91584 328.06658 254.71391 328.19922 254.51758 C 328.46449 254.12492 328.7657 253.75969 329.09961 253.42578 C 329.43315 253.09224 329.79924 252.7885 330.19141 252.52344 C 330.38768 252.3908 330.59167 252.26792 330.80078 252.1543 C 331.00943 252.04095 331.22513 251.93694 331.44531 251.84375 C 331.91612 251.64457 332.41294 251.49665 332.92773 251.39844 C 333.37883 251.31228 333.84216 251.26367 334.31836 251.26367 z "
     id="path89" />
  <path
     style="fill-rule:evenodd;stroke:#000000;stroke-width:1;stroke-linecap:butt;stroke-linejoin:round"
     inkscape:connector-curvature="0"
     id="path91"
     d="M 81.794252,233.92551 H 466.80212 v 76.44093 H 81.794252 Z" />
  <path
     style="fill:#ffffff;fill-rule:nonzero"
     inkscape:connector-curvature="0"
     id="path97"
     d="m 130.61098,280.32493 v -13.35938 h 9.65625 v 1.57813 h -7.875 v 4.09375 h 7.375 v 1.5625 h -7.375 v 4.54687 h 8.1875 v 1.57813 z m 12.2092,0 v -9.67188 h 1.46875 v 1.375 q 1.0625,-1.59375 3.07812,-1.59375 0.875,0 1.60938,0.3125 0.73437,0.3125 1.09375,0.82813 0.375,0.5 0.51562,1.20312 0.0937,0.45313 0.0937,1.59375 v 5.95313 h -1.64062 v -5.89063 q 0,-1 -0.20313,-1.48437 -0.1875,-0.5 -0.67187,-0.79688 -0.48438,-0.29687 -1.14063,-0.29687 -1.04687,0 -1.8125,0.67187 -0.75,0.65625 -0.75,2.51563 v 5.28125 z m 13.06321,0 -3.6875,-9.67188 h 1.73438 l 2.07812,5.79688 q 0.32813,0.9375 0.625,1.9375 0.20313,-0.76563 0.60938,-1.82813 l 2.14062,-5.90625 h 1.6875 l -3.65625,9.67188 z m 6.64063,-11.46875 v -1.89063 h 1.64062 v 1.89063 z m 0,11.46875 v -9.67188 h 1.64062 v 9.67188 z m 4.1292,0 v -9.67188 h 1.46875 v 1.46875 q 0.5625,-1.03125 1.03125,-1.35937 0.48437,-0.32813 1.0625,-0.32813 0.82812,0 1.6875,0.53125 l -0.5625,1.51563 q -0.60938,-0.35938 -1.20313,-0.35938 -0.54687,0 -0.96875,0.32813 -0.42187,0.32812 -0.60937,0.89062 -0.28125,0.875 -0.28125,1.92188 v 5.0625 z m 5.61892,-4.84375 q 0,-2.6875 1.48438,-3.96875 1.25,-1.07813 3.04687,-1.07813 2,0 3.26563,1.3125 1.26562,1.29688 1.26562,3.60938 0,1.85937 -0.5625,2.9375 -0.5625,1.0625 -1.64062,1.65625 -1.0625,0.59375 -2.32813,0.59375 -2.03125,0 -3.28125,-1.29688 -1.25,-1.3125 -1.25,-3.76562 z m 1.6875,0 q 0,1.85937 0.79688,2.79687 0.8125,0.92188 2.04687,0.92188 1.21875,0 2.03125,-0.92188 0.8125,-0.9375 0.8125,-2.84375 0,-1.79687 -0.8125,-2.71875 -0.8125,-0.92187 -2.03125,-0.92187 -1.23437,0 -2.04687,0.92187 -0.79688,0.90625 -0.79688,2.76563 z m 9.29758,4.84375 v -9.67188 h 1.46875 v 1.375 q 1.0625,-1.59375 3.07812,-1.59375 0.875,0 1.60938,0.3125 0.73437,0.3125 1.09375,0.82813 0.375,0.5 0.51562,1.20312 0.0937,0.45313 0.0937,1.59375 v 5.95313 h -1.64062 v -5.89063 q 0,-1 -0.20313,-1.48437 -0.1875,-0.5 -0.67187,-0.79688 -0.48438,-0.29687 -1.14063,-0.29687 -1.04687,0 -1.8125,0.67187 -0.75,0.65625 -0.75,2.51563 v 5.28125 z m 10.37573,0 v -9.67188 h 1.46875 v 1.35938 q 0.45313,-0.71875 1.20313,-1.14063 0.76562,-0.4375 1.71875,-0.4375 1.07812,0 1.76562,0.45313 0.6875,0.4375 0.96875,1.23437 1.15625,-1.6875 2.98438,-1.6875 1.45312,0 2.21875,0.79688 0.78125,0.79687 0.78125,2.45312 v 6.64063 h -1.64063 v -6.09375 q 0,-0.98438 -0.15625,-1.40625 -0.15625,-0.4375 -0.57812,-0.70313 -0.42188,-0.26562 -0.98438,-0.26562 -1.01562,0 -1.6875,0.6875 -0.67187,0.67187 -0.67187,2.15625 v 5.625 h -1.64063 v -6.28125 q 0,-1.09375 -0.40625,-1.64063 -0.40625,-0.54687 -1.3125,-0.54687 -0.6875,0 -1.28125,0.35937 -0.59375,0.35938 -0.85937,1.0625 -0.25,0.70313 -0.25,2.03125 v 5.01563 z m 22.1658,-3.10938 1.6875,0.20313 q -0.40625,1.48437 -1.48437,2.3125 -1.07813,0.8125 -2.76563,0.8125 -2.125,0 -3.375,-1.29688 -1.23437,-1.3125 -1.23437,-3.67187 0,-2.45313 1.25,-3.79688 1.26562,-1.34375 3.26562,-1.34375 1.9375,0 3.15625,1.32813 1.23438,1.3125 1.23438,3.70312 0,0.15625 0,0.4375 h -7.21875 q 0.0937,1.59375 0.90625,2.45313 0.8125,0.84375 2.01562,0.84375 0.90625,0 1.54688,-0.46875 0.64062,-0.48438 1.01562,-1.51563 z m -5.39062,-2.65625 h 5.40625 q -0.10938,-1.21875 -0.625,-1.82812 -0.78125,-0.95313 -2.03125,-0.95313 -1.125,0 -1.90625,0.76563 -0.76563,0.75 -0.84375,2.01562 z m 9.14133,5.76563 v -9.67188 h 1.46875 v 1.375 q 1.0625,-1.59375 3.07812,-1.59375 0.875,0 1.60938,0.3125 0.73437,0.3125 1.09375,0.82813 0.375,0.5 0.51562,1.20312 0.0937,0.45313 0.0937,1.59375 v 5.95313 h -1.64062 v -5.89063 q 0,-1 -0.20313,-1.48437 -0.1875,-0.5 -0.67187,-0.79688 -0.48438,-0.29687 -1.14063,-0.29687 -1.04687,0 -1.8125,0.67187 -0.75,0.65625 -0.75,2.51563 v 5.28125 z m 13.95385,-1.46875 0.23438,1.45312 q -0.6875,0.14063 -1.23438,0.14063 -0.89062,0 -1.39062,-0.28125 -0.48438,-0.28125 -0.6875,-0.73438 -0.20313,-0.46875 -0.20313,-1.9375 v -5.57812 h -1.20312 v -1.26563 h 1.20312 v -2.39062 l 1.625,-0.98438 v 3.375 h 1.65625 v 1.26563 h -1.65625 v 5.67187 q 0,0.6875 0.0781,0.89063 0.0937,0.20312 0.28125,0.32812 0.20312,0.10938 0.57812,0.10938 0.26563,0 0.71875,-0.0625 z m 14.94474,-0.10938 v 1.57813 h -8.82813 q -0.0156,-0.59375 0.1875,-1.14063 0.34375,-0.90625 1.07813,-1.78125 0.75,-0.875 2.15625,-2.01562 2.17187,-1.78125 2.9375,-2.82813 0.76562,-1.04687 0.76562,-1.96875 0,-0.98437 -0.70312,-1.64062 -0.6875,-0.67188 -1.8125,-0.67188 -1.1875,0 -1.90625,0.71875 -0.70313,0.70313 -0.70313,1.95313 l -1.6875,-0.17188 q 0.17188,-1.89062 1.29688,-2.875 1.14062,-0.98437 3.03125,-0.98437 1.92187,0 3.04687,1.0625 1.125,1.0625 1.125,2.64062 0,0.79688 -0.32812,1.57813 -0.32813,0.78125 -1.09375,1.64062 -0.75,0.84375 -2.53125,2.34375 -1.46875,1.23438 -1.89063,1.6875 -0.42187,0.4375 -0.6875,0.875 z" />
  <path
     style="fill:#ffffff;fill-rule:nonzero"
     inkscape:connector-curvature="0"
     id="path103"
     d="m 349.92555,280.32493 v -13.35938 h 1.78125 v 11.78125 h 6.5625 v 1.57813 z m 16.8757,-3.10938 1.6875,0.20313 q -0.40625,1.48437 -1.48437,2.3125 -1.07813,0.8125 -2.76563,0.8125 -2.125,0 -3.375,-1.29688 -1.23437,-1.3125 -1.23437,-3.67187 0,-2.45313 1.25,-3.79688 1.26562,-1.34375 3.26562,-1.34375 1.9375,0 3.15625,1.32813 1.23438,1.3125 1.23438,3.70312 0,0.15625 0,0.4375 h -7.21875 q 0.0937,1.59375 0.90625,2.45313 0.8125,0.84375 2.01562,0.84375 0.90625,0 1.54688,-0.46875 0.64062,-0.48438 1.01562,-1.51563 z m -5.39062,-2.65625 h 5.40625 q -0.10938,-1.21875 -0.625,-1.82812 -0.78125,-0.95313 -2.03125,-0.95313 -1.125,0 -1.90625,0.76563 -0.76563,0.75 -0.84375,2.01562 z m 15.45385,4.57813 q -0.92187,0.76562 -1.76562,1.09375 -0.82813,0.3125 -1.79688,0.3125 -1.59375,0 -2.45312,-0.78125 -0.85938,-0.78125 -0.85938,-1.98438 0,-0.71875 0.32813,-1.29687 0.32812,-0.59375 0.84375,-0.9375 0.53125,-0.35938 1.1875,-0.54688 0.46875,-0.125 1.45312,-0.25 1.98438,-0.23437 2.92188,-0.5625 0.0156,-0.34375 0.0156,-0.42187 0,-1 -0.46875,-1.42188 -0.625,-0.54687 -1.875,-0.54687 -1.15625,0 -1.70312,0.40625 -0.54688,0.40625 -0.8125,1.42187 l -1.60938,-0.21875 q 0.21875,-1.01562 0.71875,-1.64062 0.5,-0.64063 1.45313,-0.98438 0.95312,-0.34375 2.1875,-0.34375 1.25,0 2.01562,0.29688 0.78125,0.28125 1.14063,0.73437 0.375,0.4375 0.51562,1.10938 0.0781,0.42187 0.0781,1.51562 v 2.1875 q 0,2.28125 0.10937,2.89063 0.10938,0.59375 0.40625,1.15625 h -1.70312 q -0.26563,-0.51563 -0.32813,-1.1875 z m -0.14062,-3.67188 q -0.89063,0.375 -2.67188,0.625 -1.01562,0.14063 -1.4375,0.32813 -0.42187,0.1875 -0.65625,0.53125 -0.21875,0.34375 -0.21875,0.78125 0,0.65625 0.5,1.09375 0.5,0.4375 1.45313,0.4375 0.9375,0 1.67187,-0.40625 0.75,-0.42188 1.09375,-1.14063 0.26563,-0.5625 0.26563,-1.64062 z m 4.1882,4.85938 v -9.67188 h 1.46875 v 1.46875 q 0.5625,-1.03125 1.03125,-1.35937 0.48438,-0.32813 1.0625,-0.32813 0.82813,0 1.6875,0.53125 l -0.5625,1.51563 q -0.60937,-0.35938 -1.20312,-0.35938 -0.54688,0 -0.96875,0.32813 -0.42188,0.32812 -0.60938,0.89062 -0.28125,0.875 -0.28125,1.92188 v 5.0625 z m 6.2283,0 v -9.67188 h 1.46875 v 1.375 q 1.0625,-1.59375 3.07813,-1.59375 0.875,0 1.60937,0.3125 0.73438,0.3125 1.09375,0.82813 0.375,0.5 0.51563,1.20312 0.0937,0.45313 0.0937,1.59375 v 5.95313 h -1.64063 v -5.89063 q 0,-1 -0.20312,-1.48437 -0.1875,-0.5 -0.67188,-0.79688 -0.48437,-0.29687 -1.14062,-0.29687 -1.04688,0 -1.8125,0.67187 -0.75,0.65625 -0.75,2.51563 v 5.28125 z m 17.00073,-3.10938 1.6875,0.20313 q -0.40625,1.48437 -1.48437,2.3125 -1.07813,0.8125 -2.76563,0.8125 -2.125,0 -3.375,-1.29688 -1.23437,-1.3125 -1.23437,-3.67187 0,-2.45313 1.25,-3.79688 1.26562,-1.34375 3.26562,-1.34375 1.9375,0 3.15625,1.32813 1.23438,1.3125 1.23438,3.70312 0,0.15625 0,0.4375 h -7.21875 q 0.0937,1.59375 0.90625,2.45313 0.8125,0.84375 2.01562,0.84375 0.90625,0 1.54688,-0.46875 0.64062,-0.48438 1.01562,-1.51563 z m -5.39062,-2.65625 h 5.40625 q -0.10938,-1.21875 -0.625,-1.82812 -0.78125,-0.95313 -2.03125,-0.95313 -1.125,0 -1.90625,0.76563 -0.76563,0.75 -0.84375,2.01562 z m 9.1257,5.76563 v -9.67188 h 1.46875 v 1.46875 q 0.5625,-1.03125 1.03125,-1.35937 0.48438,-0.32813 1.0625,-0.32813 0.82813,0 1.6875,0.53125 l -0.5625,1.51563 q -0.60937,-0.35938 -1.20312,-0.35938 -0.54688,0 -0.96875,0.32813 -0.42188,0.32812 -0.60938,0.89062 -0.28125,0.875 -0.28125,1.92188 v 5.0625 z m 19.56784,-1.57813 v 1.57813 h -8.82809 q -0.0156,-0.59375 0.1875,-1.14063 0.34375,-0.90625 1.07812,-1.78125 0.75,-0.875 2.15622,-2.01562 2.17188,-1.78125 2.9375,-2.82813 0.76563,-1.04687 0.76563,-1.96875 0,-0.98437 -0.70313,-1.64062 -0.6875,-0.67188 -1.8125,-0.67188 -1.1875,0 -1.90622,0.71875 -0.70312,0.70313 -0.70312,1.95313 l -1.6875,-0.17188 q 0.17187,-1.89062 1.29687,-2.875 1.14063,-0.98437 3.03122,-0.98437 1.92188,0 3.04688,1.0625 1.125,1.0625 1.125,2.64062 0,0.79688 -0.32813,1.57813 -0.32812,0.78125 -1.09375,1.64062 -0.75,0.84375 -2.53125,2.34375 -1.46875,1.23438 -1.89059,1.6875 -0.42188,0.4375 -0.6875,0.875 z" />
  <path
     style="fill:#000000;fill-opacity:0;fill-rule:evenodd"
     inkscape:connector-curvature="0"
     id="path105"
     d="m 0.537026,255.18447 h 79.968496 v 36.44095 H 0.537026 Z" />
  <path
     style="fill:#ffffff;fill-rule:nonzero"
     inkscape:connector-curvature="0"
     id="path107"
     d="m 17.224522,276.8701 v -1.57813 h 5.65625 v 4.95313 q -1.29687,1.04687 -2.6875,1.57812 -1.375,0.51563 -2.84375,0.51563 -1.96875,0 -3.57812,-0.84375 -1.60938,-0.84375 -2.42188,-2.4375 -0.8125,-1.59375 -0.8125,-3.5625 0,-1.95313 0.8125,-3.64063 0.8125,-1.6875 2.34375,-2.5 1.53125,-0.82812 3.51563,-0.82812 1.45312,0 2.625,0.46875 1.17187,0.46875 1.82812,1.3125 0.67188,0.82812 1.01563,2.17187 l -1.59375,0.4375 q -0.29688,-1.01562 -0.75,-1.59375 -0.4375,-0.59375 -1.26563,-0.9375 -0.82812,-0.34375 -1.84375,-0.34375 -1.20312,0 -2.09375,0.375 -0.89062,0.35938 -1.4375,0.96875 -0.53125,0.59375 -0.82812,1.3125 -0.51563,1.23438 -0.51563,2.6875 0,1.78125 0.60938,2.98438 0.625,1.20312 1.79687,1.79687 1.17188,0.57813 2.5,0.57813 1.14063,0 2.23438,-0.4375 1.09375,-0.45313 1.65625,-0.95313 v -2.48437 z m 8.26143,5.23437 V 268.7451 h 5.04688 q 1.32812,0 2.03125,0.125 0.96875,0.17187 1.64062,0.64062 0.67188,0.45313 1.07813,1.28125 0.40625,0.82813 0.40625,1.82813 0,1.70312 -1.09375,2.89062 -1.07813,1.17188 -3.92188,1.17188 h -3.42187 v 5.42187 z m 1.76563,-7 h 3.45312 q 1.71875,0 2.4375,-0.64062 0.71875,-0.64063 0.71875,-1.79688 0,-0.84375 -0.42187,-1.4375 -0.42188,-0.59375 -1.125,-0.78125 -0.4375,-0.125 -1.64063,-0.125 h -3.42187 z m 19.44358,-6.35937 h 1.76562 v 7.71875 q 0,2.01562 -0.45312,3.20312 -0.45313,1.1875 -1.64063,1.9375 -1.1875,0.73438 -3.125,0.73438 -1.875,0 -3.07812,-0.64063 -1.1875,-0.65625 -1.70313,-1.875 -0.5,-1.23437 -0.5,-3.35937 v -7.71875 h 1.76563 v 7.71875 q 0,1.73437 0.3125,2.5625 0.32812,0.8125 1.10937,1.26562 0.79688,0.45313 1.9375,0.45313 1.95313,0 2.78125,-0.89063 0.82813,-0.89062 0.82813,-3.39062 z m 17.84375,11.78125 v 1.57812 h -8.82813 q -0.0156,-0.59375 0.1875,-1.14062 0.34375,-0.90625 1.07813,-1.78125 0.75,-0.875 2.15625,-2.01563 2.17187,-1.78125 2.9375,-2.82812 0.76562,-1.04688 0.76562,-1.96875 0,-0.98438 -0.70312,-1.64063 -0.6875,-0.67187 -1.8125,-0.67187 -1.1875,0 -1.90625,0.71875 -0.70313,0.70312 -0.70313,1.95312 l -1.6875,-0.17187 q 0.17188,-1.89063 1.29688,-2.875 1.14062,-0.98438 3.03125,-0.98438 1.92187,0 3.04687,1.0625 1.125,1.0625 1.125,2.64063 0,0.79687 -0.32812,1.57812 -0.32813,0.78125 -1.09375,1.64063 -0.75,0.84375 -2.53125,2.34375 -1.46875,1.23437 -1.89063,1.6875 -0.42187,0.4375 -0.6875,0.875 z" />
  <path
     style="fill:#000000;fill-opacity:0;fill-rule:evenodd"
     inkscape:connector-curvature="0"
     id="path109"
     d="m 278.92549,273.40496 h 48" />
  <path
     style="fill-rule:evenodd;stroke:#000000;stroke-width:2;stroke-linecap:butt;stroke-linejoin:round"
     inkscape:connector-curvature="0"
     id="path111"
     d="m 285.77965,273.40496 h 34.29166" />
  <path
     style="fill:#000000;fill-rule:evenodd;stroke:#000000;stroke-width:2;stroke-linecap:butt"
     inkscape:connector-curvature="0"
     id="path113"
     d="m 285.77965,273.40496 2.24918,-2.24918 -6.17954,2.24918 6.17954,2.24918 z" />
  <path
     style="fill:#000000;fill-rule:evenodd;stroke:#000000;stroke-width:2;stroke-linecap:butt"
     inkscape:connector-curvature="0"
     id="path115"
     d="m 320.07131,273.40496 -2.24918,2.24918 6.17954,-2.24918 -6.17954,-2.24918 z" />
  <path
     style="fill:#000000;fill-opacity:0;fill-rule:evenodd"
     inkscape:connector-curvature="0"
     id="path117"
     d="m 450.05671,81.404953 h 31.73755 V 177.40496 H 450.1197" />
  <path
     style="fill-rule:evenodd;stroke:#ff0000;stroke-width:2;stroke-linecap:butt;stroke-linejoin:round"
     inkscape:connector-curvature="0"
     id="path119"
     d="m 450.05671,81.404953 h 31.73755 V 177.40496 H 450.1197" />
  <path
     style="fill:#000000;fill-opacity:0;fill-rule:evenodd"
     inkscape:connector-curvature="0"
     id="path121"
     d="m 450.05671,177.40496 h 32.4541 v 96 H 450.1197" />
  <path
     style="fill-rule:evenodd;stroke:#ff0000;stroke-width:2;stroke-linecap:butt;stroke-linejoin:round"
     inkscape:connector-curvature="0"
     id="path123"
     d="m 450.05671,177.40496 h 32.4541 v 96 H 450.1197" />
  <path
     style="fill:#000000;fill-opacity:0;fill-rule:evenodd"
     inkscape:connector-curvature="0"
     id="path125"
     d="m 450.05671,177.40496 h 156.315" />
  <path
     style="fill-rule:evenodd;stroke:#ff0000;stroke-width:2;stroke-linecap:butt;stroke-linejoin:round"
     inkscape:connector-curvature="0"
     id="path127"
     d="M 450.05671,177.40496 H 599.51753" />
  <path
     style="fill:#ff0000;fill-rule:evenodd;stroke:#ff0000;stroke-width:2;stroke-linecap:butt"
     inkscape:connector-curvature="0"
     id="path129"
     d="m 599.51751,177.40496 -2.24915,2.24916 6.17951,-2.24916 -6.17951,-2.24918 z" />
  <path
     style="fill:#000000;fill-opacity:0;fill-rule:evenodd"
     inkscape:connector-curvature="0"
     id="path131"
     d="m 493.35721,173.56243 h 102.86615 v 36.44095 H 493.35721 Z" />
  <path
     style="fill:#000000;fill-rule:nonzero;opacity:0"
     inkscape:connector-curvature="0"
     id="path133"
     d="m 502.35721,182.56243 h 80.88324 v 22.40001 h -80.88324 z" />
  <path
     style="fill:#000000;fill-opacity:0;fill-rule:nonzero"
     inkscape:connector-curvature="0"
     id="path135"
     d="m 502.35721,183.59342 h 80.88324 v 21.45287 h -80.88324 z" />
  <path
     style="fill:#ffffff;fill-rule:nonzero"
     inkscape:connector-curvature="0"
     id="path137"
     d="m 510.04471,195.24805 v -1.57813 h 5.65625 v 4.95313 q -1.29688,1.04687 -2.6875,1.57812 -1.375,0.51563 -2.84375,0.51563 -1.96875,0 -3.57813,-0.84375 -1.60937,-0.84375 -2.42187,-2.4375 -0.8125,-1.59375 -0.8125,-3.5625 0,-1.95313 0.8125,-3.64063 0.8125,-1.6875 2.34375,-2.5 1.53125,-0.82812 3.51562,-0.82812 1.45313,0 2.625,0.46875 1.17188,0.46875 1.82813,1.3125 0.67187,0.82812 1.01562,2.17187 l -1.59375,0.4375 q -0.29687,-1.01562 -0.75,-1.59375 -0.4375,-0.59375 -1.26562,-0.9375 -0.82813,-0.34375 -1.84375,-0.34375 -1.20313,0 -2.09375,0.375 -0.89063,0.35938 -1.4375,0.96875 -0.53125,0.59375 -0.82813,1.3125 -0.51562,1.23438 -0.51562,2.6875 0,1.78125 0.60937,2.98438 0.625,1.20312 1.79688,1.79687 1.17187,0.57813 2.5,0.57813 1.14062,0 2.23437,-0.4375 1.09375,-0.45313 1.65625,-0.95313 v -2.48437 z m 8.04266,5.23437 v -9.67187 h 1.46875 v 1.46875 q 0.5625,-1.03125 1.03125,-1.35938 0.48438,-0.32812 1.0625,-0.32812 0.82813,0 1.6875,0.53125 l -0.5625,1.51562 q -0.60937,-0.35937 -1.20312,-0.35937 -0.54688,0 -0.96875,0.32812 -0.42188,0.32813 -0.60938,0.89063 -0.28125,0.875 -0.28125,1.92187 v 5.0625 z m 12.54084,-1.1875 q -0.92188,0.76563 -1.76563,1.09375 -0.82812,0.3125 -1.79687,0.3125 -1.59375,0 -2.45313,-0.78125 -0.85937,-0.78125 -0.85937,-1.98437 0,-0.71875 0.32812,-1.29688 0.32813,-0.59375 0.84375,-0.9375 0.53125,-0.35937 1.1875,-0.54687 0.46875,-0.125 1.45313,-0.25 1.98437,-0.23438 2.92187,-0.5625 0.0156,-0.34375 0.0156,-0.42188 0,-1 -0.46875,-1.42187 -0.625,-0.54688 -1.875,-0.54688 -1.15625,0 -1.70313,0.40625 -0.54687,0.40625 -0.8125,1.42188 l -1.60937,-0.21875 q 0.21875,-1.01563 0.71875,-1.64063 0.5,-0.64062 1.45312,-0.98437 0.95313,-0.34375 2.1875,-0.34375 1.25,0 2.01563,0.29687 0.78125,0.28125 1.14062,0.73438 0.375,0.4375 0.51563,1.10937 0.0781,0.42188 0.0781,1.51563 v 2.1875 q 0,2.28125 0.10938,2.89062 0.10937,0.59375 0.40625,1.15625 h -1.70313 q -0.26562,-0.51562 -0.32812,-1.1875 z m -0.14063,-3.67187 q -0.89062,0.375 -2.67187,0.625 -1.01563,0.14062 -1.4375,0.32812 -0.42188,0.1875 -0.65625,0.53125 -0.21875,0.34375 -0.21875,0.78125 0,0.65625 0.5,1.09375 0.5,0.4375 1.45312,0.4375 0.9375,0 1.67188,-0.40625 0.75,-0.42187 1.09375,-1.14062 0.26562,-0.5625 0.26562,-1.64063 z m 10.46948,4.85937 v -1.21875 q -0.90625,1.4375 -2.70312,1.4375 -1.15625,0 -2.125,-0.64062 -0.96875,-0.64063 -1.5,-1.78125 -0.53125,-1.14063 -0.53125,-2.625 0,-1.45313 0.48437,-2.625 0.48438,-1.1875 1.4375,-1.8125 0.96875,-0.625 2.17188,-0.625 0.875,0 1.54687,0.375 0.6875,0.35937 1.10938,0.95312 v -4.79687 h 1.64062 v 13.35937 z m -5.17187,-4.82812 q 0,1.85937 0.78125,2.78125 0.78125,0.92187 1.84375,0.92187 1.07812,0 1.82812,-0.875 0.75,-0.89062 0.75,-2.6875 0,-1.98437 -0.76562,-2.90625 -0.76563,-0.9375 -1.89063,-0.9375 -1.07812,0 -1.8125,0.89063 -0.73437,0.89062 -0.73437,2.8125 z m 9.28192,-6.64063 v -1.89062 h 1.64062 v 1.89062 z m 0,11.46875 v -9.67187 h 1.64062 v 9.67187 z m 10.76984,-3.10937 1.6875,0.20312 q -0.40625,1.48438 -1.48438,2.3125 -1.07812,0.8125 -2.76562,0.8125 -2.125,0 -3.375,-1.29687 -1.23438,-1.3125 -1.23438,-3.67188 0,-2.45312 1.25,-3.79687 1.26563,-1.34375 3.26563,-1.34375 1.9375,0 3.15625,1.32812 1.23437,1.3125 1.23437,3.70313 0,0.15625 0,0.4375 h -7.21875 q 0.0937,1.59375 0.90625,2.45312 0.8125,0.84375 2.01563,0.84375 0.90625,0 1.54687,-0.46875 0.64063,-0.48437 1.01563,-1.51562 z m -5.39063,-2.65625 h 5.40625 q -0.10937,-1.21875 -0.625,-1.82813 -0.78125,-0.95312 -2.03125,-0.95312 -1.125,0 -1.90625,0.76562 -0.76562,0.75 -0.84375,2.01563 z m 9.14136,5.76562 v -9.67187 h 1.46875 v 1.375 q 1.0625,-1.59375 3.07812,-1.59375 0.875,0 1.60938,0.3125 0.73437,0.3125 1.09375,0.82812 0.375,0.5 0.51562,1.20313 0.0937,0.45312 0.0937,1.59375 v 5.95312 h -1.64062 v -5.89062 q 0,-1 -0.20313,-1.48438 -0.1875,-0.5 -0.67187,-0.79687 -0.48438,-0.29688 -1.14063,-0.29688 -1.04687,0 -1.8125,0.67188 -0.75,0.65625 -0.75,2.51562 v 5.28125 z m 13.95385,-1.46875 0.23438,1.45313 q -0.6875,0.14062 -1.23438,0.14062 -0.89062,0 -1.39062,-0.28125 -0.48438,-0.28125 -0.6875,-0.73437 -0.20313,-0.46875 -0.20313,-1.9375 v -5.57813 h -1.20312 v -1.26562 h 1.20312 v -2.39063 l 1.625,-0.98437 v 3.375 h 1.65625 v 1.26562 h -1.65625 v 5.67188 q 0,0.6875 0.0781,0.89062 0.0937,0.20313 0.28125,0.32813 0.20312,0.10937 0.57812,0.10937 0.26563,0 0.71875,-0.0625 z m 0.94892,-1.42187 1.625,-0.25 q 0.125,0.96875 0.75,1.5 0.625,0.51562 1.75,0.51562 1.125,0 1.67187,-0.45312 0.54688,-0.46875 0.54688,-1.09375 0,-0.54688 -0.48438,-0.875 -0.32812,-0.21875 -1.67187,-0.54688 -1.8125,-0.46875 -2.51563,-0.79687 -0.6875,-0.32813 -1.04687,-0.90625 -0.35938,-0.59375 -0.35938,-1.3125 0,-0.64063 0.29688,-1.1875 0.29687,-0.5625 0.8125,-0.92188 0.375,-0.28125 1.03125,-0.46875 0.67187,-0.20312 1.42187,-0.20312 1.14063,0 2,0.32812 0.85938,0.32813 1.26563,0.89063 0.42187,0.5625 0.57812,1.5 l -1.60937,0.21875 q -0.10938,-0.75 -0.64063,-1.17188 -0.51562,-0.42187 -1.46875,-0.42187 -1.14062,0 -1.625,0.375 -0.46875,0.375 -0.46875,0.875 0,0.3125 0.1875,0.57812 0.20313,0.26563 0.64063,0.4375 0.23437,0.0937 1.4375,0.42188 1.75,0.45312 2.4375,0.75 0.6875,0.29687 1.07812,0.85937 0.39063,0.5625 0.39063,1.40625 0,0.82813 -0.48438,1.54688 -0.46875,0.71875 -1.375,1.125 -0.90625,0.39062 -2.04687,0.39062 -1.875,0 -2.875,-0.78125 -0.98438,-0.78125 -1.25,-2.32812 z" />
  <path
     style="fill:#000000;fill-opacity:0;fill-rule:nonzero"
     inkscape:connector-curvature="0"
     id="path139"
     d="m 583.24046,183.59342 v 0 21.45287 0 z" />
  <path
     style="fill:#000000;fill-opacity:0;fill-rule:evenodd"
     inkscape:connector-curvature="0"
     id="path141"
     d="M 667.91496,136.80652 V 17.119203 H 388.51341 v 42.14401" />
  <path
     style="fill-rule:evenodd;stroke:#ffffff;stroke-width:2;stroke-linecap:butt;stroke-linejoin:round"
     inkscape:connector-curvature="0"
     id="path143"
     d="M 667.91496,136.80652 V 17.119203 H 388.51341 V 52.40904" />
  <path
     style="fill:#ffffff;fill-rule:evenodd;stroke:#ffffff;stroke-width:2;stroke-linecap:butt"
     inkscape:connector-curvature="0"
     id="path145"
     d="m 388.51341,52.409048 -2.24918,-2.249168 2.24918,6.179535 2.24915,-6.179535 z" />
  <path
     style="fill:#000000;fill-opacity:0;fill-rule:evenodd"
     inkscape:connector-curvature="0"
     id="path147"
     d="m 388.49766,103.54669 v 51.71653" />
  <path
     style="fill-rule:evenodd;stroke:#ffffff;stroke-width:2;stroke-linecap:butt;stroke-linejoin:round"
     inkscape:connector-curvature="0"
     id="path149"
     d="m 388.49766,103.54669 v 44.86236" />
  <path
     style="fill:#ffffff;fill-rule:evenodd;stroke:#ffffff;stroke-width:2;stroke-linecap:butt"
     inkscape:connector-curvature="0"
     id="path151"
     d="m 388.49766,148.40905 -2.24918,-2.24916 2.24918,6.17953 2.24915,-6.17953 z" />
  <path
     style="fill:#000000;fill-opacity:0;fill-rule:evenodd"
     inkscape:connector-curvature="0"
     id="path153"
     d="m 388.49766,199.54668 v 51.71655" />
  <path
     style="fill-rule:evenodd;stroke:#ffffff;stroke-width:2;stroke-linecap:butt;stroke-linejoin:round"
     inkscape:connector-curvature="0"
     id="path155"
     d="m 388.49766,199.54668 v 44.86237" />
  <path
     style="fill:#ffffff;fill-rule:evenodd;stroke:#ffffff;stroke-width:2;stroke-linecap:butt"
     inkscape:connector-curvature="0"
     id="path157"
     d="m 388.49766,244.40905 -2.24918,-2.24918 2.24918,6.17954 2.24915,-6.17954 z" />
  <path
     style="fill:#000000;fill-opacity:0;fill-rule:evenodd"
     inkscape:connector-curvature="0"
     id="path159"
     d="m 476.08291,14.121491 h 148.09454 v 36.44095 H 476.08291 Z" />
  <path
     style="fill:#ffffff;fill-rule:nonzero"
     inkscape:connector-curvature="0"
     id="path161"
     d="m 495.28605,27.682113 h 1.76563 v 7.71875 q 0,2.015625 -0.45313,3.203125 -0.45312,1.1875 -1.64062,1.9375 -1.1875,0.734375 -3.125,0.734375 -1.875,0 -3.07813,-0.640625 -1.1875,-0.65625 -1.70312,-1.875 -0.5,-1.234375 -0.5,-3.359375 v -7.71875 h 1.76562 v 7.71875 q 0,1.734375 0.3125,2.5625 0.32813,0.8125 1.10938,1.265625 0.79687,0.453125 1.9375,0.453125 1.95312,0 2.78125,-0.890625 0.82812,-0.890625 0.82812,-3.390625 z m 4.50421,17.0625 v -13.375 h 1.48438 v 1.25 q 0.53125,-0.734375 1.1875,-1.09375 0.67187,-0.375 1.625,-0.375 1.23437,0 2.17187,0.640625 0.95313,0.625 1.4375,1.796875 0.48438,1.15625 0.48438,2.546875 0,1.484375 -0.53125,2.671875 -0.53125,1.1875 -1.54688,1.828125 -1.01562,0.625 -2.14062,0.625 -0.8125,0 -1.46875,-0.34375 -0.65625,-0.34375 -1.0625,-0.875 v 4.703125 z m 1.48438,-8.484375 q 0,1.859375 0.75,2.765625 0.76562,0.890625 1.82812,0.890625 1.09375,0 1.875,-0.921875 0.78125,-0.9375 0.78125,-2.875 0,-1.84375 -0.76562,-2.765625 -0.75,-0.921875 -1.8125,-0.921875 -1.04688,0 -1.85938,0.984375 -0.79687,0.96875 -0.79687,2.84375 z m 15.15698,4.78125 v -1.21875 q -0.90625,1.4375 -2.70313,1.4375 -1.15625,0 -2.125,-0.640625 -0.96875,-0.640625 -1.5,-1.78125 -0.53125,-1.140625 -0.53125,-2.625 0,-1.453125 0.48438,-2.625 0.48437,-1.1875 1.4375,-1.8125 0.96875,-0.625 2.17187,-0.625 0.875,0 1.54688,0.375 0.6875,0.359375 1.10937,0.953125 v -4.796875 h 1.64063 v 13.359375 z m -5.17188,-4.828125 q 0,1.859375 0.78125,2.78125 0.78125,0.921875 1.84375,0.921875 1.07813,0 1.82813,-0.875 0.75,-0.890625 0.75,-2.6875 0,-1.984375 -0.76563,-2.90625 -0.76562,-0.9375 -1.89062,-0.9375 -1.07813,0 -1.8125,0.890625 -0.73438,0.890625 -0.73438,2.8125 z m 15.59449,3.640625 q -0.92188,0.765625 -1.76563,1.09375 -0.82812,0.3125 -1.79687,0.3125 -1.59375,0 -2.45313,-0.78125 -0.85937,-0.78125 -0.85937,-1.984375 0,-0.71875 0.32812,-1.296875 0.32813,-0.59375 0.84375,-0.9375 0.53125,-0.359375 1.1875,-0.546875 0.46875,-0.125 1.45313,-0.25 1.98437,-0.234375 2.92187,-0.5625 0.0156,-0.34375 0.0156,-0.421875 0,-1 -0.46875,-1.421875 -0.625,-0.546875 -1.875,-0.546875 -1.15625,0 -1.70313,0.40625 -0.54687,0.40625 -0.8125,1.421875 l -1.60937,-0.21875 q 0.21875,-1.015625 0.71875,-1.640625 0.5,-0.640625 1.45312,-0.984375 0.95313,-0.34375 2.1875,-0.34375 1.25,0 2.01563,0.296875 0.78125,0.28125 1.14062,0.734375 0.375,0.4375 0.51563,1.109375 0.0781,0.421875 0.0781,1.515625 v 2.1875 q 0,2.28125 0.10938,2.890625 0.10937,0.59375 0.40625,1.15625 h -1.70313 q -0.26562,-0.515625 -0.32812,-1.1875 z m -0.14063,-3.671875 q -0.89062,0.375 -2.67187,0.625 -1.01563,0.140625 -1.4375,0.328125 -0.42188,0.1875 -0.65625,0.53125 -0.21875,0.34375 -0.21875,0.78125 0,0.65625 0.5,1.09375 0.5,0.4375 1.45312,0.4375 0.9375,0 1.67188,-0.40625 0.75,-0.421875 1.09375,-1.140625 0.26562,-0.5625 0.26562,-1.640625 z m 7.78192,3.390625 0.23438,1.453125 q -0.6875,0.140625 -1.23438,0.140625 -0.89062,0 -1.39062,-0.28125 -0.48438,-0.28125 -0.6875,-0.734375 -0.20313,-0.46875 -0.20313,-1.9375 v -5.578125 h -1.20312 v -1.265625 h 1.20312 v -2.390625 l 1.625,-0.984375 v 3.375 h 1.65625 v 1.265625 h -1.65625 v 5.671875 q 0,0.6875 0.0781,0.890625 0.0937,0.203125 0.28125,0.328125 0.20312,0.109375 0.57812,0.109375 0.26563,0 0.71875,-0.0625 z m 8.23023,-1.640625 1.6875,0.203125 q -0.40625,1.484375 -1.48438,2.3125 -1.07812,0.8125 -2.76562,0.8125 -2.125,0 -3.375,-1.296875 -1.23438,-1.3125 -1.23438,-3.671875 0,-2.453125 1.25,-3.796875 1.26563,-1.34375 3.26563,-1.34375 1.9375,0 3.15625,1.328125 1.23437,1.3125 1.23437,3.703125 0,0.15625 0,0.4375 h -7.21875 q 0.0937,1.59375 0.90625,2.453125 0.8125,0.84375 2.01563,0.84375 0.90625,0 1.54687,-0.46875 0.64063,-0.484375 1.01563,-1.515625 z m -5.39063,-2.65625 h 5.40625 q -0.10937,-1.21875 -0.625,-1.828125 -0.78125,-0.953125 -2.03125,-0.953125 -1.125,0 -1.90625,0.765625 -0.76562,0.75 -0.84375,2.015625 z m 15.40692,5.765625 v -1.21875 q -0.90625,1.4375 -2.70312,1.4375 -1.15625,0 -2.125,-0.640625 -0.96875,-0.640625 -1.5,-1.78125 -0.53125,-1.140625 -0.53125,-2.625 0,-1.453125 0.48437,-2.625 0.48438,-1.1875 1.4375,-1.8125 0.96875,-0.625 2.17188,-0.625 0.875,0 1.54687,0.375 0.6875,0.359375 1.10938,0.953125 v -4.796875 h 1.64062 v 13.359375 z m -5.17187,-4.828125 q 0,1.859375 0.78125,2.78125 0.78125,0.921875 1.84375,0.921875 1.07812,0 1.82812,-0.875 0.75,-0.890625 0.75,-2.6875 0,-1.984375 -0.76562,-2.90625 -0.76563,-0.9375 -1.89063,-0.9375 -1.07812,0 -1.8125,0.890625 -0.73437,0.890625 -0.73437,2.8125 z m 14.62152,4.828125 V 27.682113 h 2.65625 l 3.15625,9.453125 q 0.4375,1.328125 0.64062,1.984375 0.23438,-0.734375 0.70313,-2.140625 l 3.20312,-9.296875 h 2.375 v 13.359375 h -1.70312 V 29.869613 l -3.875,11.171875 h -1.59375 l -3.85938,-11.375 v 11.375 z m 14.77521,-4.84375 q 0,-2.6875 1.48437,-3.96875 1.25,-1.078125 3.04688,-1.078125 2,0 3.26562,1.3125 1.26563,1.296875 1.26563,3.609375 0,1.859375 -0.5625,2.9375 -0.5625,1.0625 -1.64063,1.65625 -1.0625,0.59375 -2.32812,0.59375 -2.03125,0 -3.28125,-1.296875 -1.25,-1.3125 -1.25,-3.765625 z m 1.6875,0 q 0,1.859375 0.79687,2.796875 0.8125,0.921875 2.04688,0.921875 1.21875,0 2.03125,-0.921875 0.8125,-0.9375 0.8125,-2.84375 0,-1.796875 -0.8125,-2.71875 -0.8125,-0.921875 -2.03125,-0.921875 -1.23438,0 -2.04688,0.921875 -0.79687,0.90625 -0.79687,2.765625 z m 15.56323,4.84375 v -1.21875 q -0.90625,1.4375 -2.70313,1.4375 -1.15625,0 -2.125,-0.640625 -0.96875,-0.640625 -1.5,-1.78125 -0.53125,-1.140625 -0.53125,-2.625 0,-1.453125 0.48438,-2.625 0.48437,-1.1875 1.4375,-1.8125 0.96875,-0.625 2.17187,-0.625 0.875,0 1.54688,0.375 0.6875,0.359375 1.10937,0.953125 v -4.796875 h 1.64063 v 13.359375 z m -5.17188,-4.828125 q 0,1.859375 0.78125,2.78125 0.78125,0.921875 1.84375,0.921875 1.07813,0 1.82813,-0.875 0.75,-0.890625 0.75,-2.6875 0,-1.984375 -0.76563,-2.90625 -0.76562,-0.9375 -1.89062,-0.9375 -1.07813,0 -1.8125,0.890625 -0.73438,0.890625 -0.73438,2.8125 z m 15.90692,1.71875 1.6875,0.203125 q -0.40625,1.484375 -1.48437,2.3125 -1.07813,0.8125 -2.76563,0.8125 -2.125,0 -3.375,-1.296875 -1.23437,-1.3125 -1.23437,-3.671875 0,-2.453125 1.25,-3.796875 1.26562,-1.34375 3.26562,-1.34375 1.9375,0 3.15625,1.328125 1.23438,1.3125 1.23438,3.703125 0,0.15625 0,0.4375 h -7.21875 q 0.0937,1.59375 0.90625,2.453125 0.8125,0.84375 2.01562,0.84375 0.90625,0 1.54688,-0.46875 0.64062,-0.484375 1.01562,-1.515625 z m -5.39062,-2.65625 h 5.40625 q -0.10938,-1.21875 -0.625,-1.828125 -0.78125,-0.953125 -2.03125,-0.953125 -1.125,0 -1.90625,0.765625 -0.76563,0.75 -0.84375,2.015625 z m 9.09448,5.765625 V 27.682113 h 1.64063 v 13.359375 z" />
</svg>
