<svg width="1104" height="720" xmlns="http://www.w3.org/2000/svg" xmlns:xlink="http://www.w3.org/1999/xlink" overflow="hidden"><defs><clipPath id="clip0"><rect x="0" y="0" width="1104" height="720"/></clipPath><linearGradient x1="891.756" y1="362.907" x2="975.715" y2="49.5692" gradientUnits="userSpaceOnUse" spreadMethod="reflect" id="fill1"><stop offset="0" stop-color="#FFFFFF"/><stop offset="0.38" stop-color="#91D0ED"/><stop offset="0.52" stop-color="#74C4E9"/><stop offset="0.65" stop-color="#91D0ED"/><stop offset="1" stop-color="#FFFFFF"/></linearGradient><linearGradient x1="817.422" y1="7.67678" x2="733.464" y2="321.014" gradientUnits="userSpaceOnUse" spreadMethod="reflect" id="fill2"><stop offset="0" stop-color="#FFFFFF"/><stop offset="0.38" stop-color="#D86060"/><stop offset="0.52" stop-color="#C00000"/><stop offset="0.65" stop-color="#D86060"/><stop offset="1" stop-color="#FFFFFF"/></linearGradient><linearGradient x1="1044.94" y1="500.364" x2="733.836" y2="408.483" gradientUnits="userSpaceOnUse" spreadMethod="reflect" id="fill3"><stop offset="0" stop-color="#FFFFFF"/><stop offset="0.38" stop-color="#91D0ED"/><stop offset="0.52" stop-color="#74C4E9"/><stop offset="0.65" stop-color="#91D0ED"/><stop offset="1" stop-color="#FFFFFF"/></linearGradient><linearGradient x1="687.941" y1="565.661" x2="999.047" y2="657.543" gradientUnits="userSpaceOnUse" spreadMethod="reflect" id="fill4"><stop offset="0" stop-color="#FFFFFF"/><stop offset="0.38" stop-color="#D86060"/><stop offset="0.52" stop-color="#C00000"/><stop offset="0.65" stop-color="#D86060"/><stop offset="1" stop-color="#FFFFFF"/></linearGradient></defs><g clip-path="url(#clip0)"><rect x="0" y="0" width="1104" height="720" fill="#FFFFFF"/><path d="M282.202 287.327 474.297 338.799 480.891 314.189 516.922 376.597 454.515 412.628 461.109 388.019 269.013 336.547Z" fill="#FF0000" fill-rule="evenodd"/><path d="M261.19 339.938 165.444 165.631 143.114 177.898 163.243 108.704 232.437 128.833 210.106 141.099 305.852 315.405Z" fill="#215F9A" fill-rule="evenodd"/><path d="M0 1.34843C0 0.603712 0.603714 -4.7579e-16 1.34843 -6.34386e-16L6.7419 0C7.48662 -1.58597e-16 8.09033 0.603712 8.09033 1.34843L8.09033 38.5146C8.09033 39.2593 7.48662 39.863 6.7419 39.863L1.34843 39.863C0.603714 39.863 -1.58597e-16 39.2593 0 38.5146Z" stroke="#FFFFFF" stroke-width="4" stroke-linejoin="round" stroke-miterlimit="10" fill="#434343" fill-rule="evenodd" transform="matrix(-0.866778 0.498694 0.498694 0.866778 234.961 296.41)"/><path d="M0 1.34843C0 0.603712 0.603714 -4.7579e-16 1.34843 -6.34386e-16L6.7419 0C7.48662 -1.58597e-16 8.09033 0.603712 8.09033 1.34843L8.09033 38.5146C8.09033 39.2593 7.48662 39.863 6.7419 39.863L1.34843 39.863C0.603714 39.863 -1.58597e-16 39.2593 0 38.5146Z" stroke="#FFFFFF" stroke-width="4" stroke-linejoin="round" stroke-miterlimit="10" fill="#434343" fill-rule="evenodd" transform="matrix(-0.866778 0.498694 0.498694 0.866778 291.415 264.891)"/><path d="M234.268 295.483C231.673 291.009 233.196 285.278 237.67 282.683L270.075 263.887C274.549 261.292 280.28 262.815 282.875 267.289L308.376 311.252C310.971 315.727 309.448 321.458 304.973 324.053L272.569 342.849C268.095 345.444 262.364 343.921 259.769 339.446Z" stroke="#FFFFFF" stroke-width="4" stroke-linejoin="round" stroke-miterlimit="10" fill="#008450" fill-rule="evenodd"/><path d="M268.976 355.139 267.412 340.497 272.576 337.519 275.703 366.802Z" stroke="#FFFFFF" stroke-width="4" stroke-linejoin="round" stroke-miterlimit="10" fill="#434343" fill-rule="evenodd"/><path d="M0 13.4645 5.96053 0 11.9211 0 0 26.929Z" stroke="#FFFFFF" stroke-width="4" stroke-linejoin="round" stroke-miterlimit="10" fill="#434343" fill-rule="evenodd" transform="matrix(-0.866253 0.499606 0.499606 0.866253 310.885 315.236)"/><path d="M257.479 265.354 260.078 274.422 251.744 279.24 245.183 272.462Z" stroke="#FFFFFF" stroke-width="4" stroke-linejoin="round" stroke-miterlimit="10" fill="#666666" fill-rule="evenodd"/><path d="M0 1.34843C0 0.603712 0.603714 -4.7579e-16 1.34843 -6.34386e-16L6.7419 0C7.48662 -1.58597e-16 8.09033 0.603712 8.09033 1.34843L8.09033 38.5146C8.09033 39.2593 7.48662 39.863 6.7419 39.863L1.34843 39.863C0.603714 39.863 -1.58597e-16 39.2593 0 38.5146Z" stroke="#0E2841" stroke-linejoin="round" stroke-miterlimit="10" fill="#434343" fill-rule="evenodd" transform="matrix(-0.866778 0.498694 0.498694 0.866778 234.951 296.157)"/><path d="M235.71 298.141 228.746 302.176" stroke="#999999" stroke-linejoin="round" stroke-miterlimit="10" fill="none" fill-rule="evenodd"/><path d="M236.834 300.08 229.87 304.115" stroke="#999999" stroke-linejoin="round" stroke-miterlimit="10" fill="none" fill-rule="evenodd"/><path d="M237.962 302.017 230.997 306.052" stroke="#999999" stroke-linejoin="round" stroke-miterlimit="10" fill="none" fill-rule="evenodd"/><path d="M239.085 303.956 232.121 307.99" stroke="#999999" stroke-linejoin="round" stroke-miterlimit="10" fill="none" fill-rule="evenodd"/><path d="M240.212 305.893 233.247 309.928" stroke="#999999" stroke-linejoin="round" stroke-miterlimit="10" fill="none" fill-rule="evenodd"/><path d="M241.336 307.832 234.372 311.866" stroke="#999999" stroke-linejoin="round" stroke-miterlimit="10" fill="none" fill-rule="evenodd"/><path d="M242.463 309.769 235.499 313.803" stroke="#999999" stroke-linejoin="round" stroke-miterlimit="10" fill="none" fill-rule="evenodd"/><path d="M243.587 311.708 236.623 315.742" stroke="#999999" stroke-linejoin="round" stroke-miterlimit="10" fill="none" fill-rule="evenodd"/><path d="M244.807 313.591 237.842 317.625" stroke="#999999" stroke-linejoin="round" stroke-miterlimit="10" fill="none" fill-rule="evenodd"/><path d="M245.931 315.529 238.966 319.564" stroke="#999999" stroke-linejoin="round" stroke-miterlimit="10" fill="none" fill-rule="evenodd"/><path d="M247.058 317.466 240.093 321.501" stroke="#999999" stroke-linejoin="round" stroke-miterlimit="10" fill="none" fill-rule="evenodd"/><path d="M248.182 319.405 241.217 323.44" stroke="#999999" stroke-linejoin="round" stroke-miterlimit="10" fill="none" fill-rule="evenodd"/><path d="M249.309 321.342 242.344 325.377" stroke="#999999" stroke-linejoin="round" stroke-miterlimit="10" fill="none" fill-rule="evenodd"/><path d="M250.432 323.281 243.468 327.315" stroke="#999999" stroke-linejoin="round" stroke-miterlimit="10" fill="none" fill-rule="evenodd"/><path d="M251.46 325.276 244.591 329.214" stroke="#999999" stroke-linejoin="round" stroke-miterlimit="10" fill="none" fill-rule="evenodd"/><path d="M252.585 327.214 245.717 331.152" stroke="#999999" stroke-linejoin="round" stroke-miterlimit="10" fill="none" fill-rule="evenodd"/><path d="M251.061 325.508 244.576 329.35" stroke="#999999" stroke-linejoin="round" stroke-miterlimit="10" fill="none" fill-rule="evenodd"/><path d="M252.485 327.272 245.761 331.258" stroke="#999999" stroke-linejoin="round" stroke-miterlimit="10" fill="none" fill-rule="evenodd"/><path d="M253.81 329.094 246.845 333.129" stroke="#999999" stroke-linejoin="round" stroke-miterlimit="10" fill="none" fill-rule="evenodd"/><path d="M0 1.34843C0 0.603712 0.603714 -4.7579e-16 1.34843 -6.34386e-16L6.7419 0C7.48662 -1.58597e-16 8.09033 0.603712 8.09033 1.34843L8.09033 38.5146C8.09033 39.2593 7.48662 39.863 6.7419 39.863L1.34843 39.863C0.603714 39.863 -1.58597e-16 39.2593 0 38.5146Z" stroke="#0E2841" stroke-linejoin="round" stroke-miterlimit="10" fill="#434343" fill-rule="evenodd" transform="matrix(-0.866778 0.498694 0.498694 0.866778 291.405 264.638)"/><path d="M292.164 266.623 285.199 270.657" stroke="#999999" stroke-linejoin="round" stroke-miterlimit="10" fill="none" fill-rule="evenodd"/><path d="M293.288 268.561 286.323 272.596" stroke="#999999" stroke-linejoin="round" stroke-miterlimit="10" fill="none" fill-rule="evenodd"/><path d="M294.415 270.498 287.45 274.533" stroke="#999999" stroke-linejoin="round" stroke-miterlimit="10" fill="none" fill-rule="evenodd"/><path d="M295.539 272.437 288.574 276.472" stroke="#999999" stroke-linejoin="round" stroke-miterlimit="10" fill="none" fill-rule="evenodd"/><path d="M296.666 274.374 289.701 278.409" stroke="#999999" stroke-linejoin="round" stroke-miterlimit="10" fill="none" fill-rule="evenodd"/><path d="M297.789 276.313 290.825 280.347" stroke="#999999" stroke-linejoin="round" stroke-miterlimit="10" fill="none" fill-rule="evenodd"/><path d="M298.917 278.25 291.952 282.284" stroke="#999999" stroke-linejoin="round" stroke-miterlimit="10" fill="none" fill-rule="evenodd"/><path d="M300.04 280.189 293.076 284.223" stroke="#999999" stroke-linejoin="round" stroke-miterlimit="10" fill="none" fill-rule="evenodd"/><path d="M301.26 282.072 294.296 286.106" stroke="#999999" stroke-linejoin="round" stroke-miterlimit="10" fill="none" fill-rule="evenodd"/><path d="M302.384 284.011 295.42 288.045" stroke="#999999" stroke-linejoin="round" stroke-miterlimit="10" fill="none" fill-rule="evenodd"/><path d="M303.511 285.947 296.547 289.982" stroke="#999999" stroke-linejoin="round" stroke-miterlimit="10" fill="none" fill-rule="evenodd"/><path d="M304.635 287.886 297.671 291.921" stroke="#999999" stroke-linejoin="round" stroke-miterlimit="10" fill="none" fill-rule="evenodd"/><path d="M305.762 289.823 298.797 293.858" stroke="#999999" stroke-linejoin="round" stroke-miterlimit="10" fill="none" fill-rule="evenodd"/><path d="M306.886 291.762 299.921 295.797" stroke="#999999" stroke-linejoin="round" stroke-miterlimit="10" fill="none" fill-rule="evenodd"/><path d="M307.913 293.757 301.045 297.696" stroke="#999999" stroke-linejoin="round" stroke-miterlimit="10" fill="none" fill-rule="evenodd"/><path d="M309.038 295.695 302.17 299.634" stroke="#999999" stroke-linejoin="round" stroke-miterlimit="10" fill="none" fill-rule="evenodd"/><path d="M307.514 293.989 301.03 297.831" stroke="#999999" stroke-linejoin="round" stroke-miterlimit="10" fill="none" fill-rule="evenodd"/><path d="M308.938 295.753 302.214 299.74" stroke="#999999" stroke-linejoin="round" stroke-miterlimit="10" fill="none" fill-rule="evenodd"/><path d="M310.263 297.575 303.298 301.61" stroke="#999999" stroke-linejoin="round" stroke-miterlimit="10" fill="none" fill-rule="evenodd"/><path d="M234.258 295.23C231.663 290.756 233.186 285.025 237.66 282.43L270.065 263.634C274.539 261.039 280.27 262.562 282.865 267.036L308.366 311C310.961 315.474 309.438 321.205 304.963 323.8L272.559 342.596C268.085 345.191 262.354 343.668 259.758 339.194Z" fill="#008450" fill-rule="evenodd"/><path d="M240.002 293.224 277.946 271.226 303.82 315.856 265.875 337.854Z" fill="#434343" fill-rule="evenodd"/><path d="M247.215 293.795 277.667 276.023 299.79 313.931 269.338 331.702Z" stroke="#0E2841" stroke-linejoin="round" stroke-miterlimit="10" fill="#666666" fill-rule="evenodd"/><path d="M265.738 308.342C262.223 302.347 264.234 294.638 270.229 291.123 276.224 287.608 283.933 289.619 287.448 295.614 290.962 301.609 288.952 309.318 282.957 312.833 276.962 316.348 269.253 314.337 265.738 308.342Z" stroke="#0E2841" stroke-linejoin="round" stroke-miterlimit="10" fill="#999999" fill-rule="evenodd"/><path d="M268.966 354.886 267.402 340.244 272.565 337.266 275.693 366.55Z" stroke="#0E2841" stroke-linejoin="round" stroke-miterlimit="10" fill="#434343" fill-rule="evenodd"/><path d="M0 13.4645 5.96053 0 11.9211 0 0 26.929Z" stroke="#0E2841" stroke-linejoin="round" stroke-miterlimit="10" fill="#434343" fill-rule="evenodd" transform="matrix(-0.866253 0.499606 0.499606 0.866253 310.875 314.984)"/><path d="M243.36 283.874 268.672 269.272 270.29 272.077 244.978 286.678Z" stroke="#0E2841" stroke-linejoin="round" stroke-miterlimit="10" fill="#999999" fill-rule="evenodd"/><path d="M257.469 265.101 260.068 274.169 251.734 278.988 245.173 272.21Z" stroke="#0E2841" stroke-linejoin="round" stroke-miterlimit="10" fill="#666666" fill-rule="evenodd"/><path d="M240.191 298.93 253.687 291.149 258.258 299.078 244.762 306.859Z" stroke="#0E2841" stroke-linejoin="round" stroke-miterlimit="10" fill="#CCCCCC" fill-rule="evenodd"/><path d="M245.946 308.843 259.443 301.062 264.014 308.99 250.517 316.771Z" stroke="#0E2841" stroke-linejoin="round" stroke-miterlimit="10" fill="#CCCCCC" fill-rule="evenodd"/><path d="M251.472 318.36 264.969 310.579 269.54 318.508 256.043 326.289Z" stroke="#0E2841" stroke-linejoin="round" stroke-miterlimit="10" fill="#CCCCCC" fill-rule="evenodd"/><path d="M257.228 328.273 270.724 320.492 275.295 328.42 261.799 336.201Z" stroke="#0E2841" stroke-linejoin="round" stroke-miterlimit="10" fill="#CCCCCC" fill-rule="evenodd"/><path d="M2-2.90357e-06 2.00009 62.3157-1.99991 62.3157-2 2.90357e-06ZM6.00009 60.3157 0.000104987 72.3157-5.99991 60.3157Z" fill="#A648D9" transform="matrix(1 0 0 -1 111 650.316)"/><path d="M110 648 162.754 648 162.754 652 110 652ZM160.754 644 172.754 650 160.754 656Z" fill="#FFA225"/><path d="M100 650C100 643.373 105.373 638 112 638 118.627 638 124 643.373 124 650 124 656.627 118.627 662 112 662 105.373 662 100 656.627 100 650Z" stroke="#042433" stroke-width="2" stroke-miterlimit="8" fill="#FFFFFF" fill-rule="evenodd"/><text fill="#404040" font-family="Aptos,Aptos_MSFontService,sans-serif" font-weight="700" font-size="48" transform="translate(54.1349 655)">W</text><path d="M0.973376-1.74715 39.4447 19.686 37.4979 23.1803-0.973376 1.74715ZM39.6442 15.2183 47.207 26.3001 33.804 25.7013Z" fill="#A648D9" transform="matrix(-1 0 0 1 267.207 297)"/><path d="M265.491 298.27 239.816 252.186 243.311 250.239 268.985 296.323ZM237.295 255.88 236.697 242.477 247.778 250.039Z" fill="#FFA225"/><path d="M271.218 304.614C267.235 306.833 262.208 305.403 259.989 301.42 257.77 297.437 259.2 292.41 263.183 290.191 267.165 287.972 272.193 289.402 274.412 293.385 276.631 297.368 275.201 302.395 271.218 304.614Z" stroke="#042433" stroke-width="2" stroke-miterlimit="8" fill="#FFFFFF" fill-rule="evenodd"/><text fill="#FFA225" font-family="Cambria Math,Cambria Math_MSFontService,sans-serif" font-weight="400" font-size="24" transform="translate(177.167 658)">๐ฅ</text><path d="M5.75391-16.8984 9.73828-13.207 9.10547-12.5391 4.96875-15.3867 4.83984-15.3867 0.632812-12.5391 0-13.207 4.18359-16.8984Z" fill="#FFA225" transform="translate(180.081 658)"/><text fill="#000000" fill-opacity="0" font-family="Arial,Arial_MSFontService,sans-serif" font-size="4.35938" y="-13.084">เท</text><text fill="#A648D9" font-family="Cambria Math,Cambria Math_MSFontService,sans-serif" font-weight="400" font-size="24" transform="translate(92.7606 588)">๐ฆ</text><path d="M5.75391-16.8984 9.73828-13.207 9.10547-12.5391 4.96875-15.3867 4.83984-15.3867 0.632812-12.5391 0-13.207 4.18359-16.8984Z" fill="#A648D9" transform="translate(95.9072 588)"/><text fill="#000000" fill-opacity="0" font-family="Arial,Arial_MSFontService,sans-serif" font-size="4.35938" y="-13.084">เท</text><text fill="#A648D9" font-family="Cambria Math,Cambria Math_MSFontService,sans-serif" font-weight="400" font-size="24" transform="translate(196.853 328)">๐ฆ</text><path d="M5.75391-16.8984 9.73828-13.207 9.10547-12.5391 4.96875-15.3867 4.83984-15.3867 0.632812-12.5391 0-13.207 4.18359-16.8984Z" fill="#A648D9" transform="translate(200 328)"/><text fill="#000000" fill-opacity="0" font-family="Arial,Arial_MSFontService,sans-serif" font-size="4.35938" y="-13.084">เท</text><text fill="#A648D9" font-family="Cambria Math,Cambria Math_MSFontService,sans-serif" font-weight="400" font-size="24" transform="translate(210.767 328)">โฒ</text><text fill="#FFA225" font-family="Cambria Math,Cambria Math_MSFontService,sans-serif" font-weight="400" font-size="24" transform="translate(221.919 241)">๐ฅ</text><path d="M5.75391-16.8984 9.73828-13.207 9.10547-12.5391 4.96875-15.3867 4.83984-15.3867 0.632812-12.5391 0-13.207 4.18359-16.8984Z" fill="#FFA225" transform="translate(224.832 241)"/><text fill="#000000" fill-opacity="0" font-family="Arial,Arial_MSFontService,sans-serif" font-size="4.35938" y="-13.084">เท</text><text fill="#FFA225" font-family="Cambria Math,Cambria Math_MSFontService,sans-serif" font-weight="400" font-size="24" transform="translate(235.479 241)">โฒ</text><text fill="#404040" font-family="Aptos,Aptos_MSFontService,sans-serif" font-weight="700" font-size="48" transform="translate(298.733 265)">B</text><text fill="#FF0000" font-family="Aptos,Aptos_MSFontService,sans-serif" font-weight="700" font-size="24" transform="matrix(0.965926 0.258819 -0.258819 0.965926 327.86 374)">command</text><text fill="#215F9A" font-family="Aptos,Aptos_MSFontService,sans-serif" font-weight="700" font-size="24" transform="matrix(0.5 0.866025 -0.866025 0.5 154.06 195)">forwards</text><path d="M2.76252-1.16982 5.10217 4.35521-0.422871 6.69486-2.76252 1.16982ZM7.44182 9.88025 9.78146 15.4053 4.25643 17.7449 1.91678 12.2199ZM12.1211 20.9303 14.4608 26.4554 8.93572 28.795 6.59607 23.27ZM16.8004 31.9804 19.1401 37.5054 13.615 39.8451 11.2754 34.3201ZM21.4797 43.0305 23.8194 48.5555 18.2943 50.8952 15.9547 45.3701ZM26.159 54.0806 28.4987 59.6056 22.9736 61.9452 20.634 56.4202ZM30.8383 65.1306 33.178 70.6557 27.6529 72.9953 25.3133 67.4703ZM35.5176 76.1807 37.8573 81.7058 32.3322 84.0454 29.9926 78.5204ZM40.1969 87.2308 42.5365 92.7558 37.0115 95.0955 34.6719 89.5704ZM44.8762 98.2809 47.2158 103.806 41.6908 106.146 39.3512 100.621ZM49.5555 109.331 51.8951 114.856 46.3701 117.196 44.0305 111.671ZM54.2348 120.381 56.5744 125.906 51.0494 128.246 48.7098 122.721ZM58.9141 131.431 61.2537 136.956 55.7287 139.296 53.389 133.771ZM63.5934 142.481 65.933 148.006 60.408 150.346 58.0683 144.821ZM68.2727 153.531 70.6123 159.056 65.0873 161.396 62.7476 155.871ZM72.952 164.581 75.2916 170.106 69.7666 172.446 67.4269 166.921ZM77.6312 175.631 79.9709 181.156 74.4459 183.496 72.1062 177.971ZM82.3105 186.681 84.6502 192.207 79.1252 194.546 76.7855 189.021ZM86.9898 197.732 89.3295 203.257 83.8044 205.596 81.4648 200.071ZM91.6691 208.782 94.0088 214.307 88.4837 216.646 86.1441 211.121ZM96.3484 219.832 98.6881 225.357 93.163 227.696 90.8234 222.171ZM101.028 230.882 103.367 236.407 97.8423 238.746 95.5027 233.221ZM105.707 241.932 108.047 247.457 102.522 249.797 100.182 244.272ZM110.386 252.982 112.726 258.507 107.201 260.847 104.861 255.322ZM115.066 264.032 117.405 269.557 111.88 271.897 109.541 266.372ZM119.745 275.082 122.085 280.607 116.56 282.947 114.22 277.422ZM124.424 286.132 126.764 291.657 121.239 293.997 118.899 288.472ZM129.104 297.182 131.443 302.707 125.918 305.047 123.578 299.522ZM133.783 308.232 136.122 313.757 130.597 316.097 128.258 310.572ZM138.462 319.282 139.408 321.516 133.883 323.856 132.937 321.622ZM143.763 316.414 142.495 336.498 127.188 323.433Z" fill="#00B050" transform="matrix(1 0 0 -1 123 635.498)"/><text fill="#00B050" font-family="Aptos,Aptos_MSFontService,sans-serif" font-weight="400" font-size="24" transform="matrix(0.379086 -0.925361 0.925361 0.379086 136.056 580)">robot.data.root_pos_w</text><path d="M266.843 287.935 265.855 282.017 271.773 281.029 272.761 286.947ZM264.867 276.099 263.879 270.181 269.797 269.193 270.785 275.111ZM262.891 264.262 261.904 258.344 267.822 257.357 268.81 263.275ZM260.916 252.426 259.928 246.508 265.846 245.52 266.834 251.438ZM258.94 240.59 257.952 234.672 263.87 233.684 264.858 239.602ZM256.964 228.754 255.977 222.836 261.895 221.848 262.882 227.766ZM254.989 216.918 254.001 210.999 259.919 210.012 260.907 215.93ZM253.013 205.081 252.025 199.163 257.943 198.175 258.931 204.093ZM251.037 193.245 250.049 187.327 255.968 186.339 256.955 192.257ZM249.062 181.409 248.074 175.491 253.992 174.503 254.98 180.421ZM247.086 169.573 246.098 163.654 252.016 162.667 253.004 168.585ZM245.11 157.736 244.122 151.818 250.04 150.83 251.028 156.748ZM243.134 145.9 242.147 139.982 248.065 138.994 249.053 144.912ZM241.159 134.064 240.171 128.146 246.089 127.158 247.077 133.076ZM239.183 122.228 238.195 116.309 244.113 115.322 245.101 121.24ZM237.207 110.391 236.22 104.473 242.138 103.485 243.126 109.403ZM235.232 98.5551 234.244 92.6369 240.162 91.6491 241.15 97.5672ZM233.256 86.7188 232.268 80.8007 238.186 79.8129 239.174 85.731ZM231.28 74.8826 230.292 68.9645 236.211 67.9766 237.198 73.8947ZM229.305 63.0464 228.511 58.289 234.429 57.3012 235.223 62.0585ZM223.086 62.2361 229 43 240.841 59.2726Z" fill="#61CBF4"/><text fill="#00B0F0" font-family="Aptos,Aptos_MSFontService,sans-serif" font-weight="400" font-size="24" transform="translate(254.176 56)">robot.data.root_com_vel_w[:,:3]</text><path d="M312 289 631.248 289 631.248 293 312 293ZM629.248 285 641.248 291 629.248 297Z" fill="#FFA225"/><text fill="#FFA225" font-family="Cambria Math,Cambria Math_MSFontService,sans-serif" font-weight="400" font-size="24" transform="translate(626.304 282)">๐ฅ</text><path d="M5.75391-16.8984 9.73828-13.207 9.10547-12.5391 4.96875-15.3867 4.83984-15.3867 0.632812-12.5391 0-13.207 4.18359-16.8984Z" fill="#FFA225" transform="translate(629.217 282)"/><text fill="#000000" fill-opacity="0" font-family="Arial,Arial_MSFontService,sans-serif" font-size="4.35938" y="-13.084">เท</text><path d="M453.528 358.071 624.359 404.815 623.303 408.673 452.472 361.929ZM623.486 400.429 633.477 409.383 620.318 412.003Z" fill="#FF0000"/><path d="M565.203 294.741 568.203 299.775 570.623 305.133 572.413 310.67 573.584 316.342 574.149 322.103 574.118 327.911 573.505 333.722 572.321 339.493 570.579 345.184 568.291 350.753 565.467 356.158 562.12 361.358 558.26 366.311 553.874 371.001 551.646 372.857 549.086 369.782 551.219 368.007 551.038 368.178 555.277 363.645 555.16 363.781 558.91 358.97 558.805 359.117 562.055 354.069 561.964 354.226 564.703 348.982 564.626 349.148 566.844 343.75 566.782 343.925 568.469 338.413 568.422 338.597 569.567 333.013 569.537 333.205 570.13 327.59 570.119 327.79 570.148 322.185 570.158 322.391 569.614 316.837 569.646 317.047 568.518 311.586 568.573 311.797 566.851 306.469 566.932 306.677 564.604 301.525 564.709 301.725 561.767 296.788ZM555.696 374.724 542.594 377.613 548.144 365.398Z" fill="#FF7E1D"/><text fill="#FF7E1D" font-family="Aptos,Aptos_MSFontService,sans-serif" font-weight="700" font-size="24" transform="translate(584.455 340)">yaw</text><path d="M897.812 28.6953C984.274 52.1183 1035.38 141.197 1011.95 227.659 988.577 313.952 899.779 365.056 813.422 341.917L855.401 185.248Z" fill="url(#fill1)" fill-rule="evenodd"/><path d="M811.366 341.888C724.905 318.465 673.802 229.386 697.225 142.924 720.602 56.6311 809.399 5.52706 895.757 28.6664L853.778 185.336Z" fill="url(#fill2)" fill-rule="evenodd"/><path d="M0 1.34843C0 0.603712 0.603714 -4.7579e-16 1.34843 -6.34386e-16L6.7419 0C7.48662 -1.58597e-16 8.09033 0.603712 8.09033 1.34843L8.09033 38.5146C8.09033 39.2593 7.48662 39.863 6.7419 39.863L1.34843 39.863C0.603714 39.863 -1.58597e-16 39.2593 0 38.5146Z" stroke="#FFFFFF" stroke-width="4" stroke-linejoin="round" stroke-miterlimit="10" fill="#434343" fill-rule="evenodd" transform="matrix(-0.866778 0.498694 0.498694 0.866778 822.551 169.949)"/><path d="M0 1.34843C0 0.603712 0.603714 -4.7579e-16 1.34843 -6.34386e-16L6.7419 0C7.48662 -1.58597e-16 8.09033 0.603712 8.09033 1.34843L8.09033 38.5146C8.09033 39.2593 7.48662 39.863 6.7419 39.863L1.34843 39.863C0.603714 39.863 -1.58597e-16 39.2593 0 38.5146Z" stroke="#FFFFFF" stroke-width="4" stroke-linejoin="round" stroke-miterlimit="10" fill="#434343" fill-rule="evenodd" transform="matrix(-0.866778 0.498694 0.498694 0.866778 879.004 138.43)"/><path d="M821.857 169.023C819.262 164.549 820.785 158.818 825.26 156.223L857.664 137.427C862.138 134.831 867.869 136.355 870.465 140.829L895.965 184.792C898.56 189.266 897.037 194.997 892.563 197.593L860.158 216.389C855.684 218.984 849.953 217.461 847.358 212.986Z" stroke="#FFFFFF" stroke-width="4" stroke-linejoin="round" stroke-miterlimit="10" fill="#008450" fill-rule="evenodd"/><path d="M856.565 228.678 855.002 214.037 860.165 211.059 863.292 240.342Z" stroke="#FFFFFF" stroke-width="4" stroke-linejoin="round" stroke-miterlimit="10" fill="#434343" fill-rule="evenodd"/><path d="M0 13.4645 5.96053 0 11.9211 0 0 26.929Z" stroke="#FFFFFF" stroke-width="4" stroke-linejoin="round" stroke-miterlimit="10" fill="#434343" fill-rule="evenodd" transform="matrix(-0.866253 0.499606 0.499606 0.866253 898.474 188.776)"/><path d="M845.068 138.894 847.668 147.962 839.333 152.78 832.772 146.002Z" stroke="#FFFFFF" stroke-width="4" stroke-linejoin="round" stroke-miterlimit="10" fill="#666666" fill-rule="evenodd"/><path d="M0 1.34843C0 0.603712 0.603714 -4.7579e-16 1.34843 -6.34386e-16L6.7419 0C7.48662 -1.58597e-16 8.09033 0.603712 8.09033 1.34843L8.09033 38.5146C8.09033 39.2593 7.48662 39.863 6.7419 39.863L1.34843 39.863C0.603714 39.863 -1.58597e-16 39.2593 0 38.5146Z" stroke="#0E2841" stroke-linejoin="round" stroke-miterlimit="10" fill="#434343" fill-rule="evenodd" transform="matrix(-0.866778 0.498694 0.498694 0.866778 822.541 169.697)"/><path d="M823.3 171.681 816.335 175.716" stroke="#999999" stroke-linejoin="round" stroke-miterlimit="10" fill="none" fill-rule="evenodd"/><path d="M824.424 173.62 817.459 177.655" stroke="#999999" stroke-linejoin="round" stroke-miterlimit="10" fill="none" fill-rule="evenodd"/><path d="M825.551 175.557 818.586 179.591" stroke="#999999" stroke-linejoin="round" stroke-miterlimit="10" fill="none" fill-rule="evenodd"/><path d="M826.675 177.496 819.71 181.53" stroke="#999999" stroke-linejoin="round" stroke-miterlimit="10" fill="none" fill-rule="evenodd"/><path d="M827.801 179.433 820.837 183.467" stroke="#999999" stroke-linejoin="round" stroke-miterlimit="10" fill="none" fill-rule="evenodd"/><path d="M828.925 181.372 821.961 185.406" stroke="#999999" stroke-linejoin="round" stroke-miterlimit="10" fill="none" fill-rule="evenodd"/><path d="M830.053 183.308 823.088 187.343" stroke="#999999" stroke-linejoin="round" stroke-miterlimit="10" fill="none" fill-rule="evenodd"/><path d="M831.176 185.247 824.212 189.282" stroke="#999999" stroke-linejoin="round" stroke-miterlimit="10" fill="none" fill-rule="evenodd"/><path d="M832.396 187.13 825.432 191.165" stroke="#999999" stroke-linejoin="round" stroke-miterlimit="10" fill="none" fill-rule="evenodd"/><path d="M833.52 189.069 826.555 193.104" stroke="#999999" stroke-linejoin="round" stroke-miterlimit="10" fill="none" fill-rule="evenodd"/><path d="M834.647 191.006 827.683 195.041" stroke="#999999" stroke-linejoin="round" stroke-miterlimit="10" fill="none" fill-rule="evenodd"/><path d="M835.771 192.945 828.807 196.979" stroke="#999999" stroke-linejoin="round" stroke-miterlimit="10" fill="none" fill-rule="evenodd"/><path d="M836.898 194.882 829.933 198.917" stroke="#999999" stroke-linejoin="round" stroke-miterlimit="10" fill="none" fill-rule="evenodd"/><path d="M838.022 196.821 831.057 200.855" stroke="#999999" stroke-linejoin="round" stroke-miterlimit="10" fill="none" fill-rule="evenodd"/><path d="M839.049 198.816 832.181 202.754" stroke="#999999" stroke-linejoin="round" stroke-miterlimit="10" fill="none" fill-rule="evenodd"/><path d="M840.174 200.754 833.306 204.692" stroke="#999999" stroke-linejoin="round" stroke-miterlimit="10" fill="none" fill-rule="evenodd"/><path d="M838.65 199.048 832.166 202.89" stroke="#999999" stroke-linejoin="round" stroke-miterlimit="10" fill="none" fill-rule="evenodd"/><path d="M840.074 200.812 833.35 204.798" stroke="#999999" stroke-linejoin="round" stroke-miterlimit="10" fill="none" fill-rule="evenodd"/><path d="M841.399 202.634 834.434 206.669" stroke="#999999" stroke-linejoin="round" stroke-miterlimit="10" fill="none" fill-rule="evenodd"/><path d="M0 1.34843C0 0.603712 0.603714 -4.7579e-16 1.34843 -6.34386e-16L6.7419 0C7.48662 -1.58597e-16 8.09033 0.603712 8.09033 1.34843L8.09033 38.5146C8.09033 39.2593 7.48662 39.863 6.7419 39.863L1.34843 39.863C0.603714 39.863 -1.58597e-16 39.2593 0 38.5146Z" stroke="#0E2841" stroke-linejoin="round" stroke-miterlimit="10" fill="#434343" fill-rule="evenodd" transform="matrix(-0.866778 0.498694 0.498694 0.866778 878.994 138.178)"/><path d="M879.753 140.162 872.788 144.197" stroke="#999999" stroke-linejoin="round" stroke-miterlimit="10" fill="none" fill-rule="evenodd"/><path d="M880.877 142.101 873.912 146.136" stroke="#999999" stroke-linejoin="round" stroke-miterlimit="10" fill="none" fill-rule="evenodd"/><path d="M882.004 144.038 875.04 148.073" stroke="#999999" stroke-linejoin="round" stroke-miterlimit="10" fill="none" fill-rule="evenodd"/><path d="M883.128 145.977 876.163 150.011" stroke="#999999" stroke-linejoin="round" stroke-miterlimit="10" fill="none" fill-rule="evenodd"/><path d="M884.255 147.914 877.29 151.949" stroke="#999999" stroke-linejoin="round" stroke-miterlimit="10" fill="none" fill-rule="evenodd"/><path d="M885.379 149.853 878.414 153.887" stroke="#999999" stroke-linejoin="round" stroke-miterlimit="10" fill="none" fill-rule="evenodd"/><path d="M886.506 151.79 879.541 155.824" stroke="#999999" stroke-linejoin="round" stroke-miterlimit="10" fill="none" fill-rule="evenodd"/><path d="M887.63 153.728 880.665 157.763" stroke="#999999" stroke-linejoin="round" stroke-miterlimit="10" fill="none" fill-rule="evenodd"/><path d="M888.849 155.612 881.885 159.646" stroke="#999999" stroke-linejoin="round" stroke-miterlimit="10" fill="none" fill-rule="evenodd"/><path d="M889.973 157.55 883.009 161.585" stroke="#999999" stroke-linejoin="round" stroke-miterlimit="10" fill="none" fill-rule="evenodd"/><path d="M891.101 159.487 884.136 163.522" stroke="#999999" stroke-linejoin="round" stroke-miterlimit="10" fill="none" fill-rule="evenodd"/><path d="M892.225 161.426 885.26 165.461" stroke="#999999" stroke-linejoin="round" stroke-miterlimit="10" fill="none" fill-rule="evenodd"/><path d="M893.351 163.363 886.387 167.398" stroke="#999999" stroke-linejoin="round" stroke-miterlimit="10" fill="none" fill-rule="evenodd"/><path d="M894.475 165.302 887.511 169.337" stroke="#999999" stroke-linejoin="round" stroke-miterlimit="10" fill="none" fill-rule="evenodd"/><path d="M895.502 167.297 888.634 171.235" stroke="#999999" stroke-linejoin="round" stroke-miterlimit="10" fill="none" fill-rule="evenodd"/><path d="M896.628 169.235 889.759 173.173" stroke="#999999" stroke-linejoin="round" stroke-miterlimit="10" fill="none" fill-rule="evenodd"/><path d="M895.103 167.529 888.619 171.371" stroke="#999999" stroke-linejoin="round" stroke-miterlimit="10" fill="none" fill-rule="evenodd"/><path d="M896.528 169.293 889.803 173.279" stroke="#999999" stroke-linejoin="round" stroke-miterlimit="10" fill="none" fill-rule="evenodd"/><path d="M897.852 171.115 890.888 175.15" stroke="#999999" stroke-linejoin="round" stroke-miterlimit="10" fill="none" fill-rule="evenodd"/><path d="M821.847 168.77C819.252 164.296 820.775 158.565 825.25 155.97L857.654 137.174C862.128 134.579 867.859 136.102 870.454 140.576L895.955 184.539C898.55 189.014 897.027 194.745 892.553 197.34L860.148 216.136C855.674 218.731 849.943 217.208 847.348 212.734Z" fill="#008450" fill-rule="evenodd"/><path d="M827.591 166.764 865.535 144.766 891.409 189.395 853.465 211.394Z" fill="#434343" fill-rule="evenodd"/><path d="M834.805 167.335 865.256 149.563 887.379 187.471 856.928 205.242Z" stroke="#0E2841" stroke-linejoin="round" stroke-miterlimit="10" fill="#666666" fill-rule="evenodd"/><path d="M853.327 181.882C849.812 175.887 851.823 168.178 857.818 164.663 863.813 161.148 871.522 163.159 875.037 169.154 878.552 175.149 876.541 182.858 870.546 186.373 864.551 189.887 856.842 187.877 853.327 181.882Z" stroke="#0E2841" stroke-linejoin="round" stroke-miterlimit="10" fill="#999999" fill-rule="evenodd"/><path d="M856.555 228.426 854.991 213.784 860.155 210.806 863.282 240.089Z" stroke="#0E2841" stroke-linejoin="round" stroke-miterlimit="10" fill="#434343" fill-rule="evenodd"/><path d="M0 13.4645 5.96053 0 11.9211 0 0 26.929Z" stroke="#0E2841" stroke-linejoin="round" stroke-miterlimit="10" fill="#434343" fill-rule="evenodd" transform="matrix(-0.866253 0.499606 0.499606 0.866253 898.464 188.524)"/><path d="M830.949 157.413 856.262 142.812 857.88 145.617 832.567 160.218Z" stroke="#0E2841" stroke-linejoin="round" stroke-miterlimit="10" fill="#999999" fill-rule="evenodd"/><path d="M845.058 138.641 847.658 147.709 839.323 152.527 832.762 145.749Z" stroke="#0E2841" stroke-linejoin="round" stroke-miterlimit="10" fill="#666666" fill-rule="evenodd"/><path d="M827.78 172.47 841.277 164.689 845.848 172.617 832.351 180.398Z" stroke="#0E2841" stroke-linejoin="round" stroke-miterlimit="10" fill="#CCCCCC" fill-rule="evenodd"/><path d="M833.536 182.383 847.032 174.602 851.603 182.53 838.106 190.311Z" stroke="#0E2841" stroke-linejoin="round" stroke-miterlimit="10" fill="#CCCCCC" fill-rule="evenodd"/><path d="M839.061 191.9 852.558 184.119 857.129 192.048 843.632 199.829Z" stroke="#0E2841" stroke-linejoin="round" stroke-miterlimit="10" fill="#CCCCCC" fill-rule="evenodd"/><path d="M844.817 201.813 858.314 194.032 862.884 201.96 849.388 209.741Z" stroke="#0E2841" stroke-linejoin="round" stroke-miterlimit="10" fill="#CCCCCC" fill-rule="evenodd"/><path d="M858.582 174.087 1018.78 222.815 1017.62 226.642 857.418 177.913ZM1018.03 218.406 1027.77 227.639 1014.54 229.887Z" fill="#FF0000"/><path d="M856.724 175.595 777.12 32.709 780.614 30.7622 860.218 173.648ZM774.599 36.403 774 23 785.082 30.5628Z" fill="#215F9A"/><path d="M710.992 485.831C736.601 399.991 826.948 351.165 912.788 376.774 998.46 402.333 1047.29 492.398 1021.97 578.141L866.418 532.2Z" fill="url(#fill3)" fill-rule="evenodd"/><path d="M1021.89 580.195C996.282 666.034 905.935 714.861 820.095 689.252 734.423 663.693 685.588 573.627 710.911 487.885L866.465 533.825Z" fill="url(#fill4)" fill-rule="evenodd"/><path d="M0 1.34843C0 0.603712 0.603714 -4.7579e-16 1.34843 -6.34386e-16L6.7419 0C7.48662 -1.58597e-16 8.09033 0.603712 8.09033 1.34843L8.09033 38.5146C8.09033 39.2593 7.48662 39.863 6.7419 39.863L1.34843 39.863C0.603714 39.863 -1.58597e-16 39.2593 0 38.5146Z" stroke="#FFFFFF" stroke-width="4" stroke-linejoin="round" stroke-miterlimit="10" fill="#434343" fill-rule="evenodd" transform="matrix(-0.866778 0.498694 0.498694 0.866778 827.701 525.024)"/><path d="M0 1.34843C0 0.603712 0.603714 -4.7579e-16 1.34843 -6.34386e-16L6.7419 0C7.48662 -1.58597e-16 8.09033 0.603712 8.09033 1.34843L8.09033 38.5146C8.09033 39.2593 7.48662 39.863 6.7419 39.863L1.34843 39.863C0.603714 39.863 -1.58597e-16 39.2593 0 38.5146Z" stroke="#FFFFFF" stroke-width="4" stroke-linejoin="round" stroke-miterlimit="10" fill="#434343" fill-rule="evenodd" transform="matrix(-0.866778 0.498694 0.498694 0.866778 884.154 493.505)"/><path d="M827.007 524.098C824.412 519.623 825.935 513.892 830.409 511.297L862.814 492.501C867.288 489.906 873.019 491.429 875.614 495.904L901.115 539.867C903.71 544.341 902.187 550.072 897.713 552.667L865.308 571.463C860.834 574.058 855.103 572.535 852.508 568.061Z" stroke="#FFFFFF" stroke-width="4" stroke-linejoin="round" stroke-miterlimit="10" fill="#008450" fill-rule="evenodd"/><path d="M861.715 583.753 860.151 569.112 865.315 566.134 868.442 595.417Z" stroke="#FFFFFF" stroke-width="4" stroke-linejoin="round" stroke-miterlimit="10" fill="#434343" fill-rule="evenodd"/><path d="M0 13.4645 5.96053 0 11.9211 0 0 26.929Z" stroke="#FFFFFF" stroke-width="4" stroke-linejoin="round" stroke-miterlimit="10" fill="#434343" fill-rule="evenodd" transform="matrix(-0.866253 0.499606 0.499606 0.866253 903.624 543.851)"/><path d="M850.218 493.968 852.818 503.036 844.483 507.855 837.922 501.077Z" stroke="#FFFFFF" stroke-width="4" stroke-linejoin="round" stroke-miterlimit="10" fill="#666666" fill-rule="evenodd"/><path d="M0 1.34843C0 0.603712 0.603714 -4.7579e-16 1.34843 -6.34386e-16L6.7419 0C7.48662 -1.58597e-16 8.09033 0.603712 8.09033 1.34843L8.09033 38.5146C8.09033 39.2593 7.48662 39.863 6.7419 39.863L1.34843 39.863C0.603714 39.863 -1.58597e-16 39.2593 0 38.5146Z" stroke="#0E2841" stroke-linejoin="round" stroke-miterlimit="10" fill="#434343" fill-rule="evenodd" transform="matrix(-0.866778 0.498694 0.498694 0.866778 827.69 524.771)"/><path d="M828.449 526.756 821.485 530.79" stroke="#999999" stroke-linejoin="round" stroke-miterlimit="10" fill="none" fill-rule="evenodd"/><path d="M829.573 528.695 822.609 532.729" stroke="#999999" stroke-linejoin="round" stroke-miterlimit="10" fill="none" fill-rule="evenodd"/><path d="M830.701 530.632 823.736 534.666" stroke="#999999" stroke-linejoin="round" stroke-miterlimit="10" fill="none" fill-rule="evenodd"/><path d="M831.825 532.57 824.86 536.605" stroke="#999999" stroke-linejoin="round" stroke-miterlimit="10" fill="none" fill-rule="evenodd"/><path d="M832.951 534.508 825.987 538.542" stroke="#999999" stroke-linejoin="round" stroke-miterlimit="10" fill="none" fill-rule="evenodd"/><path d="M834.075 536.446 827.111 540.481" stroke="#999999" stroke-linejoin="round" stroke-miterlimit="10" fill="none" fill-rule="evenodd"/><path d="M835.202 538.383 828.238 542.418" stroke="#999999" stroke-linejoin="round" stroke-miterlimit="10" fill="none" fill-rule="evenodd"/><path d="M836.326 540.322 829.362 544.357" stroke="#999999" stroke-linejoin="round" stroke-miterlimit="10" fill="none" fill-rule="evenodd"/><path d="M837.546 542.205 830.581 546.24" stroke="#999999" stroke-linejoin="round" stroke-miterlimit="10" fill="none" fill-rule="evenodd"/><path d="M838.67 544.144 831.705 548.179" stroke="#999999" stroke-linejoin="round" stroke-miterlimit="10" fill="none" fill-rule="evenodd"/><path d="M839.797 546.081 832.832 550.115" stroke="#999999" stroke-linejoin="round" stroke-miterlimit="10" fill="none" fill-rule="evenodd"/><path d="M840.921 548.02 833.956 552.054" stroke="#999999" stroke-linejoin="round" stroke-miterlimit="10" fill="none" fill-rule="evenodd"/><path d="M842.048 549.957 835.083 553.991" stroke="#999999" stroke-linejoin="round" stroke-miterlimit="10" fill="none" fill-rule="evenodd"/><path d="M843.172 551.896 836.207 555.93" stroke="#999999" stroke-linejoin="round" stroke-miterlimit="10" fill="none" fill-rule="evenodd"/><path d="M844.199 553.891 837.33 557.829" stroke="#999999" stroke-linejoin="round" stroke-miterlimit="10" fill="none" fill-rule="evenodd"/><path d="M845.324 555.829 838.456 559.767" stroke="#999999" stroke-linejoin="round" stroke-miterlimit="10" fill="none" fill-rule="evenodd"/><path d="M843.8 554.122 837.315 557.965" stroke="#999999" stroke-linejoin="round" stroke-miterlimit="10" fill="none" fill-rule="evenodd"/><path d="M845.224 555.887 838.5 559.873" stroke="#999999" stroke-linejoin="round" stroke-miterlimit="10" fill="none" fill-rule="evenodd"/><path d="M846.549 557.709 839.584 561.743" stroke="#999999" stroke-linejoin="round" stroke-miterlimit="10" fill="none" fill-rule="evenodd"/><path d="M0 1.34843C0 0.603712 0.603714 -4.7579e-16 1.34843 -6.34386e-16L6.7419 0C7.48662 -1.58597e-16 8.09033 0.603712 8.09033 1.34843L8.09033 38.5146C8.09033 39.2593 7.48662 39.863 6.7419 39.863L1.34843 39.863C0.603714 39.863 -1.58597e-16 39.2593 0 38.5146Z" stroke="#0E2841" stroke-linejoin="round" stroke-miterlimit="10" fill="#434343" fill-rule="evenodd" transform="matrix(-0.866778 0.498694 0.498694 0.866778 884.144 493.253)"/><path d="M884.903 495.237 877.938 499.272" stroke="#999999" stroke-linejoin="round" stroke-miterlimit="10" fill="none" fill-rule="evenodd"/><path d="M886.027 497.176 879.062 501.21" stroke="#999999" stroke-linejoin="round" stroke-miterlimit="10" fill="none" fill-rule="evenodd"/><path d="M887.154 499.113 880.189 503.147" stroke="#999999" stroke-linejoin="round" stroke-miterlimit="10" fill="none" fill-rule="evenodd"/><path d="M888.278 501.052 881.313 505.086" stroke="#999999" stroke-linejoin="round" stroke-miterlimit="10" fill="none" fill-rule="evenodd"/><path d="M889.405 502.989 882.44 507.023" stroke="#999999" stroke-linejoin="round" stroke-miterlimit="10" fill="none" fill-rule="evenodd"/><path d="M890.529 504.928 883.564 508.962" stroke="#999999" stroke-linejoin="round" stroke-miterlimit="10" fill="none" fill-rule="evenodd"/><path d="M891.656 506.865 884.691 510.899" stroke="#999999" stroke-linejoin="round" stroke-miterlimit="10" fill="none" fill-rule="evenodd"/><path d="M892.78 508.803 885.815 512.838" stroke="#999999" stroke-linejoin="round" stroke-miterlimit="10" fill="none" fill-rule="evenodd"/><path d="M893.999 510.686 887.035 514.721" stroke="#999999" stroke-linejoin="round" stroke-miterlimit="10" fill="none" fill-rule="evenodd"/><path d="M895.123 512.625 888.159 516.66" stroke="#999999" stroke-linejoin="round" stroke-miterlimit="10" fill="none" fill-rule="evenodd"/><path d="M896.25 514.562 889.286 518.596" stroke="#999999" stroke-linejoin="round" stroke-miterlimit="10" fill="none" fill-rule="evenodd"/><path d="M897.374 516.501 890.41 520.535" stroke="#999999" stroke-linejoin="round" stroke-miterlimit="10" fill="none" fill-rule="evenodd"/><path d="M898.501 518.438 891.536 522.473" stroke="#999999" stroke-linejoin="round" stroke-miterlimit="10" fill="none" fill-rule="evenodd"/><path d="M899.625 520.377 892.66 524.411" stroke="#999999" stroke-linejoin="round" stroke-miterlimit="10" fill="none" fill-rule="evenodd"/><path d="M900.652 522.372 893.784 526.31" stroke="#999999" stroke-linejoin="round" stroke-miterlimit="10" fill="none" fill-rule="evenodd"/><path d="M901.777 524.31 894.909 528.248" stroke="#999999" stroke-linejoin="round" stroke-miterlimit="10" fill="none" fill-rule="evenodd"/><path d="M900.253 522.604 893.769 526.446" stroke="#999999" stroke-linejoin="round" stroke-miterlimit="10" fill="none" fill-rule="evenodd"/><path d="M901.677 524.368 894.953 528.354" stroke="#999999" stroke-linejoin="round" stroke-miterlimit="10" fill="none" fill-rule="evenodd"/><path d="M903.002 526.19 896.038 530.224" stroke="#999999" stroke-linejoin="round" stroke-miterlimit="10" fill="none" fill-rule="evenodd"/><path d="M826.997 523.845C824.402 519.371 825.925 513.64 830.399 511.045L862.804 492.249C867.278 489.653 873.009 491.177 875.604 495.651L901.105 539.614C903.7 544.089 902.177 549.819 897.702 552.415L865.298 571.211C860.824 573.806 855.093 572.283 852.498 567.808Z" fill="#008450" fill-rule="evenodd"/><path d="M832.741 521.839 870.685 499.841 896.559 544.47 858.615 566.468Z" fill="#434343" fill-rule="evenodd"/><path d="M839.955 522.409 870.406 504.638 892.529 542.546 862.077 560.317Z" stroke="#0E2841" stroke-linejoin="round" stroke-miterlimit="10" fill="#666666" fill-rule="evenodd"/><path d="M858.477 536.957C854.962 530.961 856.973 523.252 862.968 519.737 868.963 516.223 876.672 518.233 880.187 524.228 883.702 530.223 881.691 537.933 875.696 541.447 869.701 544.962 861.992 542.952 858.477 536.957Z" stroke="#0E2841" stroke-linejoin="round" stroke-miterlimit="10" fill="#999999" fill-rule="evenodd"/><path d="M861.705 583.5 860.141 568.859 865.305 565.881 868.432 595.164Z" stroke="#0E2841" stroke-linejoin="round" stroke-miterlimit="10" fill="#434343" fill-rule="evenodd"/><path d="M0 13.4645 5.96053 0 11.9211 0 0 26.929Z" stroke="#0E2841" stroke-linejoin="round" stroke-miterlimit="10" fill="#434343" fill-rule="evenodd" transform="matrix(-0.866253 0.499606 0.499606 0.866253 903.614 543.598)"/><path d="M836.099 512.488 861.411 497.887 863.029 500.692 837.717 515.293Z" stroke="#0E2841" stroke-linejoin="round" stroke-miterlimit="10" fill="#999999" fill-rule="evenodd"/><path d="M850.208 493.716 852.807 502.784 844.473 507.602 837.912 500.824Z" stroke="#0E2841" stroke-linejoin="round" stroke-miterlimit="10" fill="#666666" fill-rule="evenodd"/><path d="M832.93 527.545 846.427 519.764 850.997 527.692 837.501 535.473Z" stroke="#0E2841" stroke-linejoin="round" stroke-miterlimit="10" fill="#CCCCCC" fill-rule="evenodd"/><path d="M838.685 537.457 852.182 529.676 856.753 537.605 843.256 545.386Z" stroke="#0E2841" stroke-linejoin="round" stroke-miterlimit="10" fill="#CCCCCC" fill-rule="evenodd"/><path d="M844.211 546.975 857.708 539.194 862.279 547.122 848.782 554.903Z" stroke="#0E2841" stroke-linejoin="round" stroke-miterlimit="10" fill="#CCCCCC" fill-rule="evenodd"/><path d="M849.967 556.887 863.463 549.106 868.034 557.035 854.538 564.816Z" stroke="#0E2841" stroke-linejoin="round" stroke-miterlimit="10" fill="#CCCCCC" fill-rule="evenodd"/><path d="M863.582 529.087 1023.78 577.815 1022.62 581.642 862.418 532.913ZM1023.03 573.406 1032.77 582.639 1019.54 584.887Z" fill="#FF0000"/><path d="M861.724 530.595 782.12 387.709 785.614 385.762 865.218 528.648ZM779.599 391.403 779 378 790.082 385.563Z" fill="#215F9A"/><text fill="#215F9A" font-family="Aptos,Aptos_MSFontService,sans-serif" font-weight="700" font-size="24" transform="translate(447.939 194)">forwards</text><text fill="#FF0000" font-family="Aptos,Aptos_MSFontService,sans-serif" font-weight="700" font-size="24" transform="translate(569.086 194)">command</text><text font-family="Aptos,Aptos_MSFontService,sans-serif" font-weight="700" font-size="24" transform="translate(447.939 577)">(</text><text fill="#215F9A" font-family="Aptos,Aptos_MSFontService,sans-serif" font-weight="700" font-size="24" transform="translate(454.939 577)">forwards</text><text fill="#FF0000" font-family="Aptos,Aptos_MSFontService,sans-serif" font-weight="700" font-size="24" transform="translate(576.086 577)">command</text><text font-family="Aptos,Aptos_MSFontService,sans-serif" font-weight="700" font-size="24" transform="translate(686.753 577)">)</text><path d="M561.138 566.727 564.808 570.396 568.477 566.727 569.241 567.49 565.571 571.16 569.241 574.829 568.477 575.593 564.808 571.923 561.138 575.593 560.375 574.829 564.044 571.16 560.375 567.49Z" stroke="#000000" stroke-width="2" stroke-miterlimit="8" fill-rule="evenodd"/><text font-family="Cambria Math,Cambria Math_MSFontService,sans-serif" font-weight="400" font-size="24" transform="translate(421.489 577)">๐ง</text><path d="M-2.51953-16.8984 0-13.207-0.820312-12.5391-3.30469-15.3867-3.43359-15.3867-5.91797-12.5391-6.71484-13.207-4.08984-16.8984Z" transform="translate(432.549 577)"/><text fill="#000000" fill-opacity="0" font-family="Arial,Arial_MSFontService,sans-serif" font-size="4.35938" x="-6.71484" y="-13.084">ฦธ</text><path d="M437 571C437 569.895 438.119 569 439.5 569 440.881 569 442 569.895 442 571 442 572.105 440.881 573 439.5 573 438.119 573 437 572.105 437 571Z" stroke="#000000" stroke-width="2" stroke-miterlimit="8" fill-rule="evenodd"/><path d="M553 189.5C553 188.119 554.119 187 555.5 187 556.881 187 558 188.119 558 189.5 558 190.881 556.881 192 555.5 192 554.119 192 553 190.881 553 189.5Z" stroke="#000000" stroke-width="2" stroke-miterlimit="8" fill-rule="evenodd"/></g></svg>
